<svg width="18" height="20" viewBox="0 0 18 20" fill="none" xmlns="http://www.w3.org/2000/svg">
  <path d="M15.945 2.55664H13.3941L13.4508 0.763768C13.472 0.142335 12.7705 -0.221953 12.2816 0.149478L9.107 2.55664H5.43642C4.29557 2.55664 3.37438 3.48521 3.37438 4.62808V4.89737H12.5685C14.2904 4.89737 15.6907 6.30952 15.6907 8.04381V14.0274H15.945C17.0788 14.0274 18 13.0988 18 11.956V4.62808C18 3.48521 17.0788 2.55664 15.945 2.55664Z" fill="#D3D3D3"/>
  <path fillRule="evenodd" clipRule="evenodd" d="M2.05921 5.9689H12.5692C13.7059 5.9689 14.6277 6.89819 14.6285 8.04463V15.369C14.6285 16.5154 13.7066 17.4447 12.5692 17.4447H8.89584L5.72057 19.8504C5.22951 20.2226 4.53012 19.8561 4.54996 19.2376L4.60735 17.4447H2.05921C0.921896 17.4447 0 16.5154 0 15.369V8.04463C0 6.89819 0.921896 5.9689 2.05921 5.9689ZM6.96015 13.8717C7.17126 13.9572 7.40785 13.9999 7.66993 13.9999C7.99024 13.9999 8.28871 13.9373 8.56534 13.8119C8.84925 13.6808 9.1004 13.5099 9.31879 13.2991C9.54447 13.0826 9.71918 12.8461 9.84294 12.5897C9.96669 12.3276 10.0286 12.0655 10.0286 11.8034C10.0286 11.5526 9.97397 11.3532 9.86478 11.2051C9.76286 11.0512 9.62819 10.943 9.46075 10.8803C9.29332 10.8119 9.10768 10.7777 8.90385 10.7777C8.5981 10.7777 8.36514 10.8489 8.20499 10.9914C8.05211 11.1281 7.97568 11.2877 7.97568 11.47C7.97568 11.6752 8.04847 11.8404 8.19407 11.9657C8.34694 12.0854 8.55806 12.1452 8.82741 12.1452C8.93219 12.1452 9.01844 12.1374 9.08616 12.1218C9.04407 12.2718 8.9833 12.4163 8.90385 12.5555C8.75097 12.8176 8.55806 13.0313 8.3251 13.1965C8.09215 13.3618 7.841 13.4444 7.57165 13.4444C7.36054 13.4444 7.1931 13.3988 7.06934 13.3076C6.94559 13.2108 6.88371 13.0826 6.88371 12.923V10.2649H8.23176C8.38457 10.2649 8.42542 10.1448 8.42542 10.0384C8.42542 9.93198 8.38457 9.81192 8.23176 9.81192H6.88371V8.78628C6.88371 8.52987 6.80727 8.33614 6.6544 8.20509C6.5088 8.06833 6.30497 7.99996 6.0429 7.99996C5.81723 7.99996 5.63887 8.05694 5.50784 8.1709C5.38408 8.27916 5.3222 8.41021 5.3222 8.56406C5.3222 8.70651 5.38408 8.82901 5.50784 8.93158C5.63159 9.03414 5.79539 9.08542 5.99922 9.08542C6.12383 9.08542 6.22211 9.06997 6.29405 9.03905V9.81192H5.04686C4.95996 9.81192 4.88571 9.93717 4.88571 10.0384C4.88571 10.1397 4.95441 10.2649 5.04686 10.2649H6.29405V12.9401C6.29405 13.1509 6.35229 13.3361 6.46877 13.4957C6.59252 13.6552 6.75632 13.7806 6.96015 13.8717Z" fill="#D3D3D3"/>
</svg>
