<svg width="20" height="20" viewBox="0 0 20 20" fill="none" xmlns="http://www.w3.org/2000/svg">
<path d="M9.70294 6.13448C9.92893 5.92987 10.0181 5.60834 9.90028 5.32253C9.82707 5.15039 9.7475 4.98151 9.65837 4.81911L9.5597 4.64373C9.46421 4.48134 9.35917 4.3222 9.24776 4.16955C9.06633 3.92271 8.74803 3.84152 8.46156 3.93895L7.56395 4.241C7.22336 3.95519 6.83185 3.72135 6.41169 3.56221L6.21753 2.62034C6.15705 2.31829 5.92788 2.07795 5.62867 2.04222C5.41859 2.01299 5.20533 2 4.98888 2H4.9666C4.75016 2 4.5369 2.01299 4.32682 2.03897C4.02761 2.0747 3.79844 2.31829 3.73796 2.61709L3.54379 3.56221C3.12045 3.7246 2.73213 3.95519 2.39154 4.241L1.49075 3.9422C1.20428 3.84477 0.885974 3.92596 0.704542 4.1728C0.593136 4.32544 0.488097 4.48459 0.389423 4.64698L0.293933 4.81911C0.204808 4.98151 0.125233 5.15039 0.0520233 5.32578C-0.0657484 5.60834 0.0233761 5.92987 0.24937 6.13773L0.956001 6.7808C0.920987 6.99841 0.901889 7.22575 0.901889 7.45635C0.901889 7.68695 0.920987 7.91429 0.956001 8.13515L0.24937 8.77822C0.0233761 8.98283 -0.0657484 9.30436 0.0520233 9.59017C0.125233 9.76231 0.204808 9.93119 0.293933 10.0968L0.389423 10.2657C0.484914 10.4314 0.589953 10.5873 0.704542 10.7399C0.885974 10.9867 1.20428 11.0679 1.49075 10.9705L2.38836 10.6685C2.72894 10.9543 3.12045 11.1881 3.54061 11.3472L3.73478 12.2924C3.79525 12.5944 4.02443 12.8348 4.32363 12.8705C4.5369 12.8965 4.75334 12.9095 4.97297 12.9095C5.1926 12.9095 5.40904 12.8965 5.62231 12.8705C5.92151 12.8348 6.15069 12.5912 6.21116 12.2924L6.40533 11.3472C6.82867 11.1849 7.217 10.9543 7.55758 10.6685L8.45519 10.9705C8.74166 11.0679 9.05997 10.9867 9.2414 10.7399C9.3528 10.5873 9.45784 10.4314 9.55333 10.2657L9.65201 10.0903C9.74113 9.92795 9.82071 9.75906 9.89392 9.58693C10.0117 9.30436 9.92256 8.98283 9.69657 8.77497L8.98994 8.1319C9.02495 7.91105 9.04405 7.6837 9.04405 7.4531C9.04405 7.22251 9.02495 6.99516 8.98994 6.77431L9.69657 6.13124L9.70294 6.13448ZM3.4483 7.45635C3.4483 7.04289 3.60927 6.64636 3.8958 6.354C4.18233 6.06164 4.57094 5.89739 4.97615 5.89739C5.38136 5.89739 5.76998 6.06164 6.05651 6.354C6.34303 6.64636 6.504 7.04289 6.504 7.45635C6.504 7.86981 6.34303 8.26634 6.05651 8.5587C5.76998 8.85106 5.38136 9.01531 4.97615 9.01531C4.57094 9.01531 4.18233 8.85106 3.8958 8.5587C3.60927 8.26634 3.4483 7.86981 3.4483 7.45635ZM15.948 17.9956C16.1485 18.2261 16.4637 18.3171 16.7438 18.1969C16.9125 18.1222 17.078 18.041 17.2371 17.9501L17.409 17.8494C17.5682 17.752 17.7241 17.6448 17.8737 17.5311C18.1157 17.346 18.1952 17.0212 18.0997 16.7289L17.8037 15.813C18.0838 15.4655 18.313 15.066 18.469 14.6373L19.3952 14.4392C19.6912 14.3775 19.9268 14.1436 19.9618 13.8383C19.9873 13.6207 20 13.3999 20 13.1758C20 12.9517 19.9873 12.7308 19.9618 12.5132C19.9268 12.2079 19.6881 11.9741 19.3952 11.9124L18.469 11.711C18.3098 11.279 18.0838 10.8828 17.8037 10.5353L18.0997 9.6194C18.1952 9.3271 18.1157 9.00232 17.8737 8.81719C17.7241 8.70352 17.5682 8.59634 17.409 8.49566L17.2403 8.39822C17.0812 8.30728 16.9157 8.22609 16.7438 8.15139C16.4669 8.03122 16.1517 8.12216 15.948 8.35275L15.3178 9.07377C15.1013 9.03804 14.8785 9.01856 14.6525 9.01856C14.4265 9.01856 14.2037 9.03804 13.9873 9.07377L13.357 8.35275C13.1565 8.12216 12.8414 8.03122 12.5613 8.15139C12.3926 8.22609 12.2271 8.30728 12.0647 8.39822L11.8992 8.49566C11.7369 8.59309 11.5841 8.70027 11.4345 8.81719C11.1926 9.00232 11.113 9.3271 11.2085 9.6194L11.5045 10.5353C11.2244 10.8828 10.9952 11.2823 10.8393 11.711L9.91301 11.9059C9.61699 11.9676 9.38145 12.2014 9.34644 12.5067C9.32097 12.7243 9.30824 12.9452 9.30824 13.1693C9.30824 13.3934 9.32097 13.6142 9.34644 13.8318C9.38145 14.1371 9.62018 14.371 9.91301 14.4327L10.8393 14.6308C10.9984 15.0628 11.2244 15.459 11.5045 15.8065L11.2085 16.7224C11.113 17.0147 11.1926 17.3395 11.4345 17.5246C11.5841 17.6383 11.7369 17.7455 11.8992 17.8429L12.0711 17.9436C12.2303 18.0345 12.3958 18.1157 12.5645 18.1904C12.8414 18.3106 13.1565 18.2197 13.3602 17.9891L13.9905 17.268C14.2069 17.3038 14.4297 17.3233 14.6557 17.3233C14.8817 17.3233 15.1045 17.3038 15.321 17.268L15.9512 17.9891L15.948 17.9956ZM14.6525 11.6136C14.8532 11.6136 15.0518 11.6539 15.2372 11.7322C15.4226 11.8106 15.591 11.9254 15.7329 12.0702C15.8748 12.2149 15.9873 12.3868 16.0641 12.5759C16.1409 12.7651 16.1804 12.9678 16.1804 13.1725C16.1804 13.3773 16.1409 13.58 16.0641 13.7691C15.9873 13.9583 15.8748 14.1301 15.7329 14.2749C15.591 14.4196 15.4226 14.5345 15.2372 14.6128C15.0518 14.6912 14.8532 14.7315 14.6525 14.7315C14.4519 14.7315 14.2532 14.6912 14.0678 14.6128C13.8825 14.5345 13.7141 14.4196 13.5722 14.2749C13.4303 14.1301 13.3178 13.9583 13.241 13.7691C13.1642 13.58 13.1247 13.3773 13.1247 13.1725C13.1247 12.9678 13.1642 12.7651 13.241 12.5759C13.3178 12.3868 13.4303 12.2149 13.5722 12.0702C13.7141 11.9254 13.8825 11.8106 14.0678 11.7322C14.2532 11.6539 14.4519 11.6136 14.6525 11.6136Z" fill="#C7C7CC"/>
</svg>
