<svg width="20" height="20" viewBox="0 0 20 20" fill="none" xmlns="http://www.w3.org/2000/svg">
<path d="M3.75 15.5312C3.0625 15.5312 2.5 16.0937 2.5 16.7812C2.5 16.875 2.9375 17.125 3.75 17.125C4.5625 17.125 5 16.875 5 16.7812C5 16.0937 4.4375 15.5312 3.75 15.5312Z" fill="#C7C7CC"/>
<path d="M3.75 8.34373C4.00888 8.34373 4.21875 8.13387 4.21875 7.87498C4.21875 7.6161 4.00888 7.40623 3.75 7.40623C3.49112 7.40623 3.28125 7.6161 3.28125 7.87498C3.28125 8.13387 3.49112 8.34373 3.75 8.34373Z" fill="#C7C7CC"/>
<path d="M3.3125 0.187531L0.187502 3.31253H3.3125V0.187531Z" fill="#C7C7CC"/>
<path d="M3.75 14.9062C4.00888 14.9062 4.21875 14.6964 4.21875 14.4375C4.21875 14.1786 4.00888 13.9687 3.75 13.9687C3.49112 13.9687 3.28125 14.1786 3.28125 14.4375C3.28125 14.6964 3.49112 14.9062 3.75 14.9062Z" fill="#C7C7CC"/>
<path d="M3.75 8.96873C3.0625 8.96873 2.5 9.53123 2.5 10.2187C2.5 10.3125 2.9375 10.5625 3.75 10.5625C4.5625 10.5625 5 10.3125 5 10.2187C5 9.53123 4.4375 8.96873 3.75 8.96873Z" fill="#C7C7CC"/>
<path d="M6.9375 5.59375L5.0625 4.34375C4.8125 4.1875 4.65625 3.875 4.65625 3.5625C4.65625 3.25 4.8125 2.96875 5.0625 2.78125L6.9375 1.53125C7.09375 1.4375 7.28125 1.375 7.46875 1.375H15.4062V0.9375C15.4062 0.40625 15 0 14.4688 0H3.9375V3.625C3.9375 3.8125 3.8125 3.9375 3.625 3.9375H0V19.0625C0 19.5938 0.4375 20 0.9375 20H14.4688C15 20 15.4062 19.5938 15.4062 19.0625V5.75H7.46875C7.28125 5.75 7.09375 5.6875 6.9375 5.59375ZM3.75 17.75C3.3125 17.75 2.875 17.6875 2.5625 17.5625C1.96875 17.3438 1.875 16.9688 1.875 16.7812C1.875 16.0625 2.28125 15.4375 2.90625 15.125C2.75 14.9375 2.65625 14.6875 2.65625 14.4375C2.65625 13.8438 3.15625 13.3438 3.75 13.3438C4.34375 13.3438 4.84375 13.8438 4.84375 14.4375C4.84375 14.6875 4.75 14.9375 4.59375 15.125C5.1875 15.4375 5.625 16.0625 5.625 16.7812C5.625 17.5 4.625 17.75 3.75 17.75ZM3.75 11.1875C3.3125 11.1875 2.875 11.125 2.5625 11C1.96875 10.7812 1.875 10.4062 1.875 10.2188C1.875 9.5 2.28125 8.875 2.90625 8.5625C2.75 8.375 2.65625 8.125 2.65625 7.875C2.65625 7.28125 3.15625 6.78125 3.75 6.78125C4.34375 6.78125 4.84375 7.28125 4.84375 7.875C4.84375 8.125 4.75 8.375 4.59375 8.5625C5.1875 8.875 5.625 9.5 5.625 10.2188C5.625 10.9375 4.625 11.1875 3.75 11.1875ZM12.9375 16.7812H7.0625C6.90625 16.7812 6.75 16.625 6.75 16.4688C6.75 16.2812 6.90625 16.1562 7.0625 16.1562H12.9375C13.0938 16.1562 13.25 16.2812 13.25 16.4688C13.25 16.6562 13.0938 16.7812 12.9375 16.7812ZM6.75 14.5938C6.75 14.4062 6.90625 14.2812 7.0625 14.2812H9.96875C10.1563 14.2812 10.2812 14.4062 10.2812 14.5938C10.2812 14.75 10.1563 14.9062 9.96875 14.9062H7.0625C6.90625 14.9062 6.75 14.7812 6.75 14.5938ZM13.25 9.90625C13.25 10.0625 13.0938 10.2188 12.9375 10.2188H7.0625C6.90625 10.2188 6.75 10.0625 6.75 9.90625C6.75 9.71875 6.90625 9.59375 7.0625 9.59375H12.9375C13.0938 9.59375 13.25 9.71875 13.25 9.90625ZM10.2812 8.03125C10.2812 8.1875 10.1563 8.34375 9.96875 8.34375H7.0625C6.90625 8.34375 6.75 8.1875 6.75 8.03125C6.75 7.84375 6.90625 7.71875 7.0625 7.71875H9.96875C10.1563 7.71875 10.2812 7.84375 10.2812 8.03125Z" fill="#C7C7CC"/>
<path d="M19.375 1.99997H18.3438V5.12497H19.375C19.7187 5.12497 20 4.81247 20 4.46872V2.65622C20 2.31247 19.7187 1.99997 19.375 1.99997Z" fill="#C7C7CC"/>
<path d="M17.7188 1.99997H7.78125V5.12497H17.7188V1.99997Z" fill="#C7C7CC"/>
<path d="M5.28125 3.56247C5.28125 3.65622 5.34375 3.74997 5.4375 3.81247L7.15625 4.96872V2.15622L5.4375 3.31247C5.34375 3.37497 5.28125 3.46872 5.28125 3.56247Z" fill="#C7C7CC"/>
</svg>
