<svg width="20" height="20" viewBox="0 0 20 20" fill="none" xmlns="http://www.w3.org/2000/svg">
  <path d="M6.66666 0H2.22223C0.994923 0 0 0.994923 0 2.22223V4.44445C0 5.67175 0.994923 6.66666 2.22223 6.66666H6.66666C7.89396 6.66666 8.88889 5.67175 8.88889 4.44445V2.22223C8.88889 0.994923 7.89396 0 6.66666 0Z" fill="#D3D3D3"/>
  <path d="M5.55555 7.77777H3.33334C1.49239 7.77777 0 9.27016 0 11.1111V16.6666C0 18.5076 1.49239 20 3.33334 20H5.55555C7.3965 20 8.88889 18.5076 8.88889 16.6666V11.1111C8.88889 9.27016 7.3965 7.77777 5.55555 7.77777Z" fill="#D3D3D3"/>
  <path d="M17.7778 13.3334H13.3334C12.106 13.3334 11.1111 14.3282 11.1111 15.5555V17.7778C11.1111 19.0051 12.106 20 13.3334 20H17.7778C19.0051 20 20 19.0051 20 17.7778V15.5555C20 14.3282 19.0051 13.3334 17.7778 13.3334Z" fill="#D3D3D3"/>
  <path d="M16.6666 0H14.4445C12.6035 0 11.1111 1.49239 11.1111 3.33334V8.88889C11.1111 10.7298 12.6035 12.2222 14.4445 12.2222H16.6666C18.5076 12.2222 20 10.7298 20 8.88889V3.33334C20 1.49239 18.5076 0 16.6666 0Z" fill="#D3D3D3"/>
</svg>
