<svg width="20" height="20" viewBox="0 0 20 20" fill="none" xmlns="http://www.w3.org/2000/svg">
<path fillRule="evenodd" clipRule="evenodd" d="M12.0162 1.72415H14.75C15.3472 1.72415 15.9191 1.94225 16.3409 2.33019C16.7628 2.71812 17 3.24398 17 3.79312V17.931C17 18.4802 16.7628 19.0069 16.3409 19.3948C15.9191 19.7819 15.3472 20 14.75 20H4.25C3.65281 20 3.08094 19.7819 2.65906 19.3948C2.23719 19.0069 2 18.4802 2 17.931V3.79312C2 3.24398 2.23719 2.71812 2.65906 2.33019C3.08094 1.94226 3.65281 1.72415 4.25 1.72415H6.98384C7.30729 0.727596 8.31229 0 9.5 0C10.6877 0 11.6928 0.727596 12.0162 1.72415ZM10.338 1.72415C10.1318 1.51294 9.83271 1.37932 9.4999 1.37932C9.1671 1.37932 8.86803 1.51294 8.66178 1.72415H10.338ZM5.74995 9.31128V11.0346C5.74995 11.4156 6.08557 11.7242 6.49995 11.7242C6.91434 11.7242 7.24995 11.4156 7.24995 11.0346V9.31128C7.24995 8.93023 6.91434 8.62162 6.49995 8.62162C6.08557 8.62162 5.74995 8.93023 5.74995 9.31128ZM8.74995 7.93196V11.0347C8.74995 11.4157 9.08557 11.7243 9.49995 11.7243C9.91434 11.7243 10.25 11.4157 10.25 11.0347V7.93196C10.25 7.55092 9.91434 7.2423 9.49995 7.2423C9.08557 7.2423 8.74995 7.55092 8.74995 7.93196ZM11.75 6.20781V11.0345C11.75 11.4156 12.0856 11.7242 12.5 11.7242C12.9143 11.7242 13.25 11.4156 13.25 11.0345V6.20781C13.25 5.82677 12.9143 5.51815 12.5 5.51815C12.0856 5.51815 11.75 5.82677 11.75 6.20781ZM5.74995 17.2415H13.25C13.6643 17.2415 14 16.9329 14 16.5518C14 16.1716 13.6643 15.8622 13.25 15.8622H5.74995C5.33557 15.8622 4.99995 16.1716 4.99995 16.5518C4.99995 16.9329 5.33557 17.2415 5.74995 17.2415ZM5.74995 14.4828H13.25C13.6643 14.4828 14 14.1742 14 13.7932C14 13.413 13.6643 13.1035 13.25 13.1035H5.74995C5.33557 13.1035 4.99995 13.413 4.99995 13.7932C4.99995 14.1742 5.33557 14.4828 5.74995 14.4828Z" fill="#C7C7CC"/>
</svg>
