<svg width="20" height="20" viewBox="0 0 20 20" fill="none" xmlns="http://www.w3.org/2000/svg">
  <path fillRule="evenodd" clipRule="evenodd" d="M3.78735 11.2179L7.25112 10.3264L10.0042 17.5133L13.0445 10.2598L16.0895 11.2178C16.7201 11.4133 17.2472 11.6792 17.3178 12.2384L17.9955 17.6462C18.0614 18.2054 17.3884 18.4517 16.7625 18.6668C12.2069 20.227 7.97607 20.6493 3.23165 18.6668C2.62926 18.4126 1.9468 18.2054 2.00329 17.6462L2.55862 12.2384C2.6151 11.6792 3.14256 11.3821 3.78735 11.2179Z" fill="#D3D3D3"/>
  <path fillRule="evenodd" clipRule="evenodd" d="M8.9974 11.7411H11.0023V10.5875H8.9974V11.7411Z" fill="#D3D3D3"/>
  <path fillRule="evenodd" clipRule="evenodd" d="M9.35961 12.0204H10.6397L10.9362 13.7839L9.99968 15.7468L9.06314 13.7839L9.35961 12.0204Z" fill="#D3D3D3"/>
  <path fillRule="evenodd" clipRule="evenodd" d="M13.5339 6.35031C13.4869 6.67096 13.4069 6.97594 13.2939 7.26526C12.7668 7.60154 12.0703 7.73058 11.2279 7.68366C11.2137 7.50379 11.0302 7.35913 10.8137 7.35913H9.00656C8.78065 7.35913 8.59241 7.51553 8.59241 7.70323V8.0043C8.59241 8.19591 8.78065 8.3484 9.00656 8.3484H10.8137C11.0302 8.3484 11.2137 8.20762 11.2279 8.02776C11.9526 8.05122 12.5927 8.00431 13.0445 7.80098C12.4091 8.94666 11.2844 9.70914 9.9995 9.70914C8.2441 9.70914 6.78518 8.28972 6.4698 6.41287C6.45568 6.39726 6.43686 6.38548 6.42273 6.36977L6.43685 6.53008C6.46509 6.88591 6.08388 7.17917 5.65562 7.17917C5.22735 7.17917 4.90733 6.88591 4.87439 6.53008L4.65791 4.00408C4.63438 3.73428 4.84615 3.50357 5.13323 3.4019C5.38266 1.49373 7.44864 0 9.96647 0C12.4749 0 14.5362 1.48196 14.7951 3.38236C15.1245 3.46052 15.3787 3.71081 15.3551 4.00408L15.1339 6.53011C15.1057 6.88594 14.7857 7.1792 14.3574 7.1792C13.9244 7.1792 13.5432 6.88594 13.5762 6.53011L13.595 6.29939C13.5762 6.31893 13.5575 6.33461 13.5339 6.35031ZM8.41356 2.95236C7.79705 3.8517 6.9452 4.15666 6.09815 4.06289C6.93585 3.92603 7.54762 3.40988 8.28653 2.31897C9.9572 3.31218 12.0091 3.98078 13.9811 4.03163C12.621 4.31317 10.809 4.16843 8.41356 2.95236Z" fill="#D3D3D3"/>
</svg>
