<svg width="24" height="24" viewBox="0 0 24 24" fill="none" xmlns="http://www.w3.org/2000/svg">
<g clip-path="url(#clip0_1_1199)">
<path d="M12 0H13.8947C19.2 0 20.8 0.314651 22.2427 1.75735C23.6854 3.20004 24 6.34323 24 12C24 17.6568 24 20.4853 22.2427 22.2427C20.4853 24 17.6568 24 12 24H12H12C6.34314 24 3.51472 24 1.75735 22.2427C0 20.4853 0 17.6568 0 12C0 6.34313 0 3.51471 1.75735 1.75736C3.51472 0 6.34315 0 12 0Z" fill="#223C55"/>
<path d="M11.1972 19C10.708 19 10.2664 18.911 9.87228 18.7329C9.49179 18.543 9.18604 18.2818 8.95503 17.9495C8.7376 17.6171 8.62889 17.2313 8.62889 16.7921V7.90673H9.13848C9.1113 8.07292 9.05694 8.2213 8.97541 8.35188C8.90747 8.48246 8.79875 8.58336 8.64928 8.65459C8.51339 8.72581 8.32314 8.76143 8.07854 8.76143C7.69805 8.76143 7.3923 8.65459 7.16129 8.44091C6.93028 8.22724 6.81478 7.97202 6.81478 7.67524C6.81478 7.35473 6.93028 7.0817 7.16129 6.85616C7.40589 6.61874 7.73882 6.50003 8.16008 6.50003C8.64928 6.50003 9.02977 6.64248 9.30154 6.92738C9.58691 7.20041 9.72959 7.60402 9.72959 8.13821V16.7564C9.72959 17.0888 9.8451 17.3559 10.0761 17.5577C10.3071 17.7477 10.6197 17.8426 11.0137 17.8426C11.5165 17.8426 11.9854 17.6705 12.4202 17.3262C12.855 16.982 13.2151 16.5368 13.5005 15.9908C13.7859 15.4328 13.9422 14.8334 13.9693 14.1923L14.4585 14.7087C14.3226 14.8156 14.18 14.9165 14.0305 15.0114C13.8946 15.0945 13.6704 15.1361 13.3578 15.1361C12.855 15.1361 12.461 15.0114 12.1756 14.7621C11.9038 14.501 11.7679 14.1567 11.7679 13.7294C11.7679 13.3495 11.9106 13.0171 12.196 12.7322C12.4949 12.4355 12.9298 12.2871 13.5005 12.2871C13.881 12.2871 14.2275 12.3583 14.5401 12.5007C14.8526 12.6313 15.104 12.8569 15.2943 13.1774C15.4981 13.486 15.6 13.9015 15.6 14.4238C15.6 14.9699 15.4845 15.5159 15.2535 16.062C15.0225 16.5962 14.6963 17.0888 14.2751 17.5399C13.8674 17.9791 13.3986 18.3353 12.8686 18.6083C12.3523 18.8695 11.7951 19 11.1972 19ZM6.30081 11.2187C6.12823 11.2187 6 10.9577 6 10.7468C6 10.5359 6.13858 10.275 6.30081 10.275C6.46303 10.275 11.9607 10.275 12.2459 10.275C12.5312 10.275 12.6075 10.5251 12.6075 10.7468C12.6075 10.9686 12.5312 11.2187 12.2459 11.2187C11.9607 11.2187 6.47338 11.2187 6.30081 11.2187Z" fill="white"/>
<path fillRule="evenodd" clipRule="evenodd" d="M13.3757 4.18309C13.6101 3.93901 13.9899 3.93901 14.2243 4.18309L15.6 5.61615L16.9757 4.18309C17.2101 3.93901 17.59 3.93901 17.8243 4.18309C18.0586 4.42717 18.0586 4.82289 17.8243 5.06697L16.4485 6.50003L17.8243 7.93309C18.0586 8.17717 18.0586 8.57289 17.8243 8.81697C17.59 9.06105 17.2101 9.06105 16.9757 8.81697L15.6 7.38391L14.2243 8.81697C13.9899 9.06105 13.6101 9.06105 13.3757 8.81697C13.1414 8.57289 13.1414 8.17717 13.3757 7.93309L14.7515 6.50003L13.3757 5.06697C13.1414 4.82289 13.1414 4.42717 13.3757 4.18309Z" fill="white"/>
</g>
<defs>
<clipPath id="clip0_1_1199">
<rect width="24" height="24" fill="white"/>
</clipPath>
</defs>
</svg>
