<svg width="25" height="24" viewBox="0 0 25 24" fill="none" xmlns="http://www.w3.org/2000/svg">
<g clip-path="url(#clip0_1_1161)">
<path d="M12.5001 0H14.3948C19.7001 0 21.3001 0.314652 22.7428 1.75736C24.1855 3.20006 24.5001 6.34327 24.5001 12.0001C24.5001 17.6569 24.5001 20.4854 22.7428 22.2428C20.9854 24.0001 18.1569 24.0001 12.5001 24.0001H12.5001H12.5C6.84317 24.0001 4.01474 24.0001 2.25736 22.2428C0.5 20.4854 0.5 17.6569 0.5 12.0001C0.5 6.34317 0.5 3.51473 2.25736 1.75737C4.01474 0 6.84318 0 12.5001 0Z" fill="#223C55"/>
<path d="M11.6972 19C11.208 19 10.7664 18.911 10.3723 18.7329C9.99179 18.543 9.68604 18.2818 9.45503 17.9494C9.2376 17.617 9.12889 17.2312 9.12889 16.792V7.90669H9.63848C9.6113 8.07289 9.55694 8.22127 9.47541 8.35185C9.40747 8.48243 9.29875 8.58333 9.14928 8.65456C9.01339 8.72578 8.82314 8.7614 8.57854 8.7614C8.19805 8.7614 7.8923 8.65456 7.66129 8.44088C7.43028 8.22721 7.31478 7.97198 7.31478 7.67521C7.31478 7.3547 7.43028 7.08167 7.66129 6.85612C7.90589 6.61871 8.23882 6.5 8.66008 6.5C9.14928 6.5 9.52977 6.64245 9.80154 6.92735C10.0869 7.20038 10.2296 7.60399 10.2296 8.13818V16.7564C10.2296 17.0888 10.3451 17.3559 10.5761 17.5577C10.8071 17.7476 11.1197 17.8426 11.5137 17.8426C12.0165 17.8426 12.4854 17.6705 12.9202 17.3262C13.355 16.982 13.7151 16.5368 14.0005 15.9907C14.2859 15.4328 14.4422 14.8333 14.4693 14.1923L14.9585 14.7087C14.8226 14.8155 14.68 14.9164 14.5305 15.0114C14.3946 15.0945 14.1704 15.136 13.8578 15.136C13.355 15.136 12.961 15.0114 12.6756 14.7621C12.4038 14.5009 12.2679 14.1567 12.2679 13.7293C12.2679 13.3495 12.4106 13.0171 12.696 12.7322C12.9949 12.4354 13.4298 12.287 14.0005 12.287C14.381 12.287 14.7275 12.3583 15.0401 12.5007C15.3526 12.6313 15.604 12.8568 15.7943 13.1774C15.9981 13.486 16.1 13.9015 16.1 14.4238C16.1 14.9698 15.9845 15.5159 15.7535 16.062C15.5225 16.5962 15.1963 17.0888 14.7751 17.5399C14.3674 17.9791 13.8986 18.3352 13.3686 18.6083C12.8523 18.8694 12.2951 19 11.6972 19ZM6.80081 11.2187C6.62823 11.2187 6.5 10.9577 6.5 10.7468C6.5 10.5359 6.63858 10.2749 6.80081 10.2749C6.96303 10.2749 12.4607 10.2749 12.7459 10.2749C13.0312 10.2749 13.1075 10.5251 13.1075 10.7468C13.1075 10.9685 13.0312 11.2187 12.7459 11.2187C12.4607 11.2187 6.97338 11.2187 6.80081 11.2187Z" fill="white"/>
<path fillRule="evenodd" clipRule="evenodd" d="M14.0643 4.68076C14.0821 4.28671 14.4032 3.98228 14.7815 4.0008L16.9236 4.1057L16.9409 4.10676C17.3308 4.13612 17.716 4.27465 18.0055 4.58182C18.2956 4.88973 18.4159 5.28896 18.4189 5.68965L18.4995 7.88574C18.514 8.27994 18.2189 8.61172 17.8405 8.62679C17.462 8.64187 17.1435 8.33452 17.1291 7.94032L17.0759 6.49226L14.8707 8.79065C14.603 9.06967 14.1688 9.0698 13.901 8.79094C13.6331 8.51207 13.633 8.05981 13.9007 7.78079L16.0936 5.4952L14.7171 5.42779C14.3388 5.40927 14.0465 5.07481 14.0643 4.68076Z" fill="white"/>
</g>
<defs>
<clipPath id="clip0_1_1161">
<rect width="24" height="24" fill="white" transform="translate(0.5)"/>
</clipPath>
</defs>
</svg>
