<svg width="24" height="24" viewBox="0 0 24 24" fill="none" xmlns="http://www.w3.org/2000/svg">
<g clip-path="url(#clip0_1_1123)">
<path d="M12.0001 0H13.8948C19.2001 0 20.8001 0.314652 22.2428 1.75736C23.6855 3.20006 24.0001 6.34327 24.0001 12.0001C24.0001 17.6569 24.0001 20.4854 22.2428 22.2428C20.4854 24.0001 17.6569 24.0001 12.0001 24.0001H12.0001H12C6.34317 24.0001 3.51474 24.0001 1.75736 22.2428C0 20.4854 0 17.6569 0 12.0001C0 6.34317 0 3.51473 1.75736 1.75737C3.51474 0 6.34318 0 12.0001 0Z" fill="#223C55"/>
<path d="M11.1972 19C10.708 19 10.2663 18.911 9.87227 18.7329C9.49178 18.543 9.18603 18.2818 8.95502 17.9494C8.7376 17.617 8.62889 17.2312 8.62889 16.792V7.90668H9.13847C9.11129 8.07287 9.05694 8.22126 8.9754 8.35184C8.90746 8.48242 8.79875 8.58332 8.64927 8.65454C8.51338 8.72577 8.32314 8.76138 8.07854 8.76138C7.69805 8.76138 7.3923 8.65454 7.16128 8.44087C6.93027 8.22719 6.81477 7.97197 6.81477 7.6752C6.81477 7.35469 6.93027 7.08166 7.16128 6.85611C7.40589 6.61869 7.73881 6.49998 8.16007 6.49998C8.64927 6.49998 9.02976 6.64243 9.30154 6.92733C9.5869 7.20036 9.72959 7.60397 9.72959 8.13816V16.7564C9.72959 17.0888 9.84509 17.3559 10.0761 17.5577C10.3071 17.7476 10.6197 17.8426 11.0137 17.8426C11.5165 17.8426 11.9853 17.6704 12.4202 17.3262C12.855 16.9819 13.2151 16.5368 13.5005 15.9907C13.7859 15.4328 13.9421 14.8333 13.9693 14.1923L14.4585 14.7087C14.3226 14.8155 14.18 14.9164 14.0305 15.0114C13.8946 15.0945 13.6704 15.136 13.3578 15.136C12.855 15.136 12.461 15.0114 12.1756 14.7621C11.9038 14.5009 11.7679 14.1567 11.7679 13.7293C11.7679 13.3495 11.9106 13.0171 12.196 12.7322C12.4949 12.4354 12.9298 12.287 13.5005 12.287C13.881 12.287 14.2275 12.3582 14.5401 12.5007C14.8526 12.6313 15.104 12.8568 15.2942 13.1773C15.4981 13.486 15.6 13.9015 15.6 14.4238C15.6 14.9698 15.4845 15.5159 15.2535 16.062C15.0225 16.5961 14.6963 17.0888 14.2751 17.5399C13.8674 17.9791 13.3986 18.3352 12.8686 18.6082C12.3522 18.8694 11.7951 19 11.1972 19ZM6.3008 11.2186C6.12822 11.2186 5.99999 10.9577 5.99999 10.7468C5.99999 10.5359 6.13858 10.2749 6.3008 10.2749C6.46302 10.2749 11.9607 10.2749 12.2459 10.2749C12.5312 10.2749 12.6074 10.525 12.6074 10.7468C12.6074 10.9685 12.5312 11.2186 12.2459 11.2186C11.9607 11.2186 6.47337 11.2186 6.3008 11.2186Z" fill="white"/>
<path fillRule="evenodd" clipRule="evenodd" d="M17.6357 8.31923C17.6179 8.71328 17.2968 9.01771 16.9185 8.99918L14.7764 8.89429L14.7591 8.89322C14.3692 8.86386 13.984 8.72533 13.6945 8.41817C13.4044 8.11026 13.2841 7.71103 13.2811 7.31033L13.2005 5.11424C13.186 4.72004 13.4811 4.38826 13.8595 4.37319C14.2379 4.35812 14.5565 4.66546 14.5709 5.05966L14.6241 6.50773L16.8293 4.20934C17.097 3.93031 17.5311 3.93018 17.799 4.20905C18.0669 4.48791 18.067 4.94017 17.7993 5.2192L15.6064 7.50479L16.9829 7.57219C17.3612 7.59071 17.6535 7.92517 17.6357 8.31923Z" fill="white"/>
</g>
<defs>
<clipPath id="clip0_1_1123">
<rect width="24" height="24" fill="white"/>
</clipPath>
</defs>
</svg>
