<svg width="24" height="24" viewBox="0 0 24 24" fill="none" xmlns="http://www.w3.org/2000/svg">
<g clip-path="url(#clip0_7_1427)">
<path d="M12 0H13.8947C19.2 0 20.8 0.314651 22.2427 1.75735C23.6854 3.20004 24 6.34324 24 12V12C24 17.6568 24 20.4853 22.2427 22.2427C20.4853 24 17.6568 24 12 24H12H12C6.34314 24 3.51472 24 1.75736 22.2427C0 20.4853 0 17.6568 0 12C0 6.34314 0 3.51472 1.75736 1.75736C3.51472 0 6.34315 0 12 0Z" fill="#223C55"/>
<path d="M12.3712 17.6693C11.914 17.6693 11.5013 17.5885 11.133 17.427C10.7774 17.2547 10.4916 17.0178 10.2757 16.7163C10.0725 16.4148 9.97093 16.0649 9.97093 15.6665V7.6067H10.4472C10.4218 7.75745 10.371 7.89205 10.2948 8.0105C10.2313 8.12895 10.1297 8.22047 9.98998 8.28508C9.86298 8.34969 9.68518 8.38199 9.45658 8.38199C9.10099 8.38199 8.81524 8.28508 8.59934 8.09126C8.38344 7.89744 8.27549 7.66593 8.27549 7.39673C8.27549 7.106 8.38344 6.85834 8.59934 6.65375C8.82794 6.43839 9.13908 6.33071 9.53278 6.33071C9.98998 6.33071 10.3456 6.45993 10.5996 6.71835C10.8663 6.96602 10.9996 7.33212 10.9996 7.81668V15.6342C10.9996 15.9357 11.1076 16.1779 11.3235 16.361C11.5394 16.5333 11.8315 16.6194 12.1998 16.6194C12.6697 16.6194 13.1078 16.4633 13.5142 16.151C13.9206 15.8387 14.2571 15.435 14.5238 14.9396C14.7905 14.4335 14.9366 13.8898 14.962 13.3083L15.4192 13.7767C15.2922 13.8736 15.1588 13.9651 15.0191 14.0513C14.8921 14.1267 14.6826 14.1643 14.3905 14.1643C13.9206 14.1643 13.5523 14.0513 13.2856 13.8252C13.0316 13.5883 12.9046 13.276 12.9046 12.8883C12.9046 12.5438 13.038 12.2423 13.3047 11.9838C13.5841 11.7147 13.9904 11.5801 14.5238 11.5801C14.8794 11.5801 15.2033 11.6447 15.4954 11.7739C15.7875 11.8923 16.0224 12.0969 16.2002 12.3876C16.3907 12.6676 16.486 13.0445 16.486 13.5183C16.486 14.0136 16.378 14.5089 16.1621 15.0042C15.9462 15.4888 15.6414 15.9357 15.2477 16.3448C14.8667 16.7433 14.4286 17.0663 13.9333 17.3139C13.4507 17.5508 12.93 17.6693 12.3712 17.6693ZM7.79515 10.6109C7.63386 10.6109 7.51402 10.3742 7.51402 10.1829C7.51402 9.99159 7.64354 9.7549 7.79515 9.7549C7.94676 9.7549 13.0848 9.7549 13.3514 9.7549C13.6179 9.7549 13.6892 9.98179 13.6892 10.1829C13.6892 10.3841 13.6179 10.6109 13.3514 10.6109C13.0848 10.6109 7.95643 10.6109 7.79515 10.6109Z" fill="white"/>
<path fillRule="evenodd" clipRule="evenodd" d="M15.4261 2.16422C15.6195 1.96058 15.9504 1.94407 16.1653 2.12735L17.8267 3.54467C17.937 3.63874 18 3.77276 18 3.91339C18 4.05402 17.937 4.18804 17.8267 4.28211L16.1653 5.69943C15.9504 5.88271 15.6195 5.8662 15.4261 5.66256C15.2328 5.45892 15.2502 5.14527 15.4651 4.96199L16.1128 4.40945H5.52336C5.23432 4.40945 5 4.18736 5 3.91339C5 3.63942 5.23432 3.41733 5.52336 3.41733H16.1128L15.4651 2.86479C15.2502 2.68151 15.2328 2.36786 15.4261 2.16422Z" fill="white"/>
<path fillRule="evenodd" clipRule="evenodd" d="M7.57385 21.8358C7.38049 22.0394 7.04957 22.0559 6.83473 21.8727L5.17325 20.4553C5.06297 20.3613 5 20.2272 5 20.0866C5 19.946 5.06297 19.812 5.17325 19.7179L6.83473 18.3006C7.04957 18.1173 7.38049 18.1338 7.57385 18.3374C7.76721 18.5411 7.7498 18.8547 7.53495 19.038L6.88723 19.5905H17.4766C17.7657 19.5905 18 19.8126 18 20.0866C18 20.3606 17.7657 20.5827 17.4766 20.5827H6.88723L7.53495 21.1352C7.7498 21.3185 7.76721 21.6321 7.57385 21.8358Z" fill="white"/>
</g>
<defs>
<clipPath id="clip0_7_1427">
<rect width="24" height="24" fill="white"/>
</clipPath>
</defs>
</svg>
