<svg width="25" height="24" viewBox="0 0 25 24" fill="none" xmlns="http://www.w3.org/2000/svg">
<g clip-path="url(#clip0_5_789)">
<path d="M12.5 0H14.3947C19.7 0 21.3 0.314651 22.7427 1.75735C24.1854 3.20004 24.5 6.34324 24.5 12V12C24.5 17.6568 24.5 20.4853 22.7427 22.2427C20.9853 24 18.1568 24 12.5 24H12.5H12.5C6.84314 24 4.01472 24 2.25736 22.2427C0.5 20.4853 0.5 17.6568 0.5 12C0.5 6.34314 0.5 3.51472 2.25736 1.75736C4.01472 0 6.84315 0 12.5 0Z" fill="#223C55"/>
<path d="M12.0603 13.5C11.6781 13.5 11.3331 13.4252 11.0252 13.2756C10.728 13.1161 10.4891 12.8967 10.3086 12.6175C10.1388 12.3383 10.0538 12.0142 10.0538 11.6453V4.18162H10.4519C10.4307 4.32122 10.3882 4.44587 10.3245 4.55556C10.2715 4.66524 10.1865 4.75 10.0697 4.80983C9.96358 4.86966 9.81496 4.89957 9.62386 4.89957C9.3266 4.89957 9.08774 4.80983 8.90726 4.63034C8.72678 4.45085 8.63654 4.23647 8.63654 3.98718C8.63654 3.71795 8.72678 3.4886 8.90726 3.29914C9.09835 3.09971 9.35845 3 9.68756 3C10.0697 3 10.367 3.11966 10.5793 3.35897C10.8023 3.58832 10.9137 3.92735 10.9137 4.37607V11.6154C10.9137 11.8946 11.004 12.1189 11.1845 12.2885C11.3649 12.448 11.6091 12.5278 11.917 12.5278C12.3098 12.5278 12.6761 12.3832 13.0158 12.094C13.3555 11.8048 13.6368 11.4309 13.8598 10.9722C14.0827 10.5036 14.2048 10 14.226 9.46154L14.6082 9.8953C14.5021 9.98504 14.3906 10.0698 14.2738 10.1496C14.1677 10.2194 13.9925 10.2543 13.7483 10.2543C13.3555 10.2543 13.0476 10.1496 12.8247 9.94017C12.6124 9.7208 12.5062 9.43162 12.5062 9.07265C12.5062 8.75356 12.6177 8.47436 12.8406 8.23504C13.0742 7.98575 13.4139 7.86111 13.8598 7.86111C14.157 7.86111 14.4278 7.92094 14.6719 8.0406C14.9161 8.15028 15.1125 8.33974 15.2611 8.60897C15.4204 8.86823 15.5 9.21724 15.5 9.65598C15.5 10.1147 15.4098 10.5734 15.2293 11.0321C15.0488 11.4808 14.794 11.8946 14.4649 12.2735C14.1464 12.6424 13.7802 12.9416 13.3661 13.1709C12.9627 13.3903 12.5274 13.5 12.0603 13.5ZM8.235 6.96368C8.10018 6.96368 8 6.74448 8 6.56731C8 6.39013 8.10827 6.17094 8.235 6.17094C8.36174 6.17094 12.6568 6.17094 12.8796 6.17094C13.1025 6.17094 13.1621 6.38105 13.1621 6.56731C13.1621 6.75357 13.1025 6.96368 12.8796 6.96368C12.6568 6.96368 8.36983 6.96368 8.235 6.96368Z" fill="white"/>
<path fillRule="evenodd" clipRule="evenodd" d="M14.8065 16.7537C13.7641 16.2958 9.93407 15.6255 8.92039 16.4063C8.64152 16.6211 8.32253 16.8666 8.00868 17.1073C7.95826 17.1465 7.94283 17.2276 7.97575 17.2877L9.27644 19.7037C9.30114 19.7492 9.34333 19.7713 9.38861 19.7614C10.3013 19.565 11.4343 20.2095 13.0901 20.4109C13.5212 20.4636 13.9082 20.3311 14.2508 20.0131L18.408 16.1582C18.7013 15.8856 18.232 14.9759 17.8606 15.0005C17.2802 15.0385 16.1174 16.1839 15.4043 16.8162C15.3683 16.8481 15.3528 16.8984 15.3621 16.95C15.3703 16.9991 15.3775 17.0494 15.3827 17.0985C15.3971 17.2446 15.396 17.3944 15.3796 17.5307C15.3611 17.6817 15.323 17.8204 15.2623 17.9272C15.1707 18.0892 15.041 18.1801 14.8682 18.1568L12.3748 17.8216C12.2524 17.8057 12.1649 17.6743 12.1783 17.5294C12.1917 17.3833 12.3018 17.279 12.4242 17.295L14.8095 17.6154C14.8661 17.6227 14.9186 17.5785 14.9309 17.511C14.934 17.4938 14.9371 17.4754 14.9392 17.4558C14.9505 17.3649 14.9505 17.2618 14.9402 17.1587C14.9207 16.9622 14.8734 16.7832 14.8065 16.7537ZM6.55057 17.7493L7.26781 17.1993C7.31926 17.16 7.38718 17.1785 7.42011 17.2386L9.03978 20.2476C9.07271 20.309 9.05728 20.39 9.00685 20.4293L8.28961 20.9793C8.23816 21.0185 8.17024 21.0001 8.13732 20.94L6.51764 17.931C6.48471 17.8696 6.49912 17.7886 6.55057 17.7493Z" fill="white"/>
</g>
<defs>
<clipPath id="clip0_5_789">
<rect width="24" height="24" fill="white" transform="translate(0.5)"/>
</clipPath>
</defs>
</svg>
