<svg width="20" height="20" viewBox="0 0 20 20" fill="none" xmlns="http://www.w3.org/2000/svg">
<path fill-rule="evenodd" clip-rule="evenodd" d="M15.3019 19.1668C17.8961 19.1668 20 17.0101 20 14.3507C19.9976 11.6939 17.901 9.54209 15.3092 9.53467H15.3019C12.7077 9.53467 10.6039 11.6914 10.6039 14.3507C10.6039 17.0101 12.7077 19.1668 15.3019 19.1668ZM16.2874 12.6893C16.4903 12.4194 16.8672 12.3674 17.1304 12.5754H17.1329C17.3961 12.7859 17.4444 13.1746 17.2416 13.4445L15.686 15.5418C15.5725 15.6978 15.3937 15.7894 15.2029 15.7894C15.0121 15.7894 14.8333 15.6978 14.7198 15.5418L13.8454 14.3037C13.814 14.2691 13.785 14.227 13.7609 14.1849C13.5966 13.8853 13.7005 13.5089 13.9903 13.3405C14.2826 13.1721 14.6498 13.2786 14.814 13.5757L15.2126 14.1353L16.2874 12.6918V12.6893Z" fill="#E4E4E7"/>
<path d="M3.89614 1.45253V2.60641H2.68841V1.45253C2.68841 1.11082 2.95894 0.833496 3.29227 0.833496C3.62561 0.833496 3.89614 1.11082 3.89614 1.45253Z" fill="#E4E4E7"/>
<path d="M8.60871 0.838448C8.27537 0.838448 8.00484 1.11578 8.00484 1.45748V2.61136H9.21257V1.45253C9.21016 1.1133 8.93962 0.838448 8.60871 0.838448Z" fill="#E4E4E7"/>
<path d="M13.9227 0.838448C13.5894 0.838448 13.3189 1.11578 13.3189 1.45748V2.61136H14.5266V1.45253C14.5266 1.11082 14.2561 0.835972 13.9227 0.838448Z" fill="#E4E4E7"/>
<path d="M15.6256 2.60641H14.5338V5.10235C14.5338 5.44653 14.2633 5.72138 13.93 5.72138C13.5966 5.72138 13.3261 5.44653 13.3261 5.10235V2.60641H9.21982V5.10235C9.21982 5.44653 8.94929 5.72138 8.61595 5.72138C8.28262 5.72138 8.01209 5.44653 8.01209 5.10235V2.60641H3.9058V5.10235C3.9058 5.44653 3.63527 5.72138 3.30194 5.72138C2.9686 5.72138 2.69807 5.44653 2.69807 5.10235V2.60641H2.2657C1.01449 2.61136 0.00241546 3.64886 0 4.9315V14.4101C0.00241546 15.6928 1.01449 16.7328 2.2657 16.7328H9.87441C9.20049 15.1208 9.24397 13.286 9.99276 11.7087C11.4179 8.70017 14.9541 7.44725 17.8865 8.90817V4.9315C17.8841 3.65134 16.8744 2.61384 15.6256 2.60641ZM4.85749 13.1968H4.10145C3.76812 13.1968 3.49759 12.922 3.49759 12.5778C3.49759 12.2336 3.76812 11.9588 4.10145 11.9588H4.85749C5.19083 11.9588 5.46136 12.2361 5.46136 12.5778C5.46136 12.9195 5.19083 13.1968 4.85749 13.1968ZM4.85749 8.98741H4.10145C3.76812 8.98741 3.49759 8.71255 3.49759 8.36837C3.49759 8.02419 3.76812 7.74934 4.10145 7.74934H4.85749C5.19083 7.74934 5.46136 8.02667 5.46136 8.36837C5.46136 8.71008 5.19083 8.98741 4.85749 8.98741ZM8.45653 13.1968H7.70049C7.36716 13.1968 7.09663 12.922 7.09663 12.5778C7.09663 12.2336 7.36716 11.9588 7.70049 11.9588H8.45653C8.78986 11.9588 9.0604 12.2361 9.0604 12.5778C9.0604 12.9195 8.78986 13.1968 8.45653 13.1968ZM8.45653 8.98741H7.70049C7.36716 8.98741 7.09663 8.71255 7.09663 8.36837C7.09663 8.02419 7.36716 7.74934 7.70049 7.74934H8.45653C8.78986 7.74934 9.0604 8.02667 9.0604 8.36837C9.0604 8.71008 8.78986 8.98741 8.45653 8.98741Z" fill="#E4E4E7"/>
</svg>
