<svg width="18" height="14" viewBox="0 0 18 14" fill="none" xmlns="http://www.w3.org/2000/svg">
<path d="M17.75 6.6875V12C17.75 12.3315 17.6183 12.6495 17.3839 12.8839C17.1495 13.1183 16.8315 13.25 16.5 13.25H1.5C1.16848 13.25 0.850537 13.1183 0.616116 12.8839C0.381696 12.6495 0.25 12.3315 0.25 12V6.6875C0.25 6.60462 0.282924 6.52513 0.341529 6.46653C0.400134 6.40792 0.47962 6.375 0.5625 6.375H3.375V11.375C3.37481 11.4607 3.39224 11.5455 3.42621 11.6241C3.46017 11.7028 3.50995 11.7736 3.57245 11.8323C3.63494 11.8909 3.70882 11.936 3.78949 11.9649C3.87017 11.9937 3.95591 12.0057 4.04141 12C4.2024 11.9862 4.35215 11.9118 4.46046 11.7919C4.56877 11.672 4.62757 11.5155 4.625 11.3539V6.375H7.75V7.9375C7.75 8.02038 7.78292 8.09987 7.84153 8.15847C7.90013 8.21708 7.97962 8.25 8.0625 8.25H9.9375C10.0204 8.25 10.0999 8.21708 10.1585 8.15847C10.2171 8.09987 10.25 8.02038 10.25 7.9375V6.375H13.375V11.375C13.3748 11.4607 13.3922 11.5455 13.4262 11.6241C13.4602 11.7028 13.51 11.7736 13.5724 11.8323C13.6349 11.8909 13.7088 11.936 13.7895 11.9649C13.8702 11.9937 13.9559 12.0057 14.0414 12C14.2021 11.9862 14.3517 11.912 14.4599 11.7925C14.5682 11.6729 14.6272 11.5168 14.625 11.3555V6.375H17.4375C17.5204 6.375 17.5999 6.40792 17.6585 6.46653C17.7171 6.52513 17.75 6.60462 17.75 6.6875ZM13.375 0.125H4.625C3.46468 0.125 2.35188 0.585936 1.53141 1.40641C0.710936 2.22688 0.25 3.33968 0.25 4.5V4.8125C0.25 4.89538 0.282924 4.97487 0.341529 5.03347C0.400134 5.09208 0.47962 5.125 0.5625 5.125H3.375V2.02109C3.37243 1.85953 3.43123 1.70301 3.53954 1.5831C3.64785 1.46319 3.7976 1.38882 3.95859 1.375C4.04409 1.36932 4.12983 1.38129 4.21051 1.41014C4.29118 1.439 4.36506 1.48414 4.42755 1.54275C4.49005 1.60136 4.53983 1.6722 4.57379 1.75086C4.60776 1.82952 4.62519 1.91432 4.625 2V5.125H7.75V4.1875C7.75 4.10462 7.78292 4.02513 7.84153 3.96653C7.90013 3.90792 7.97962 3.875 8.0625 3.875H9.9375C10.0204 3.875 10.0999 3.90792 10.1585 3.96653C10.2171 4.02513 10.25 4.10462 10.25 4.1875V5.125H13.375V2.02109C13.3724 1.85953 13.4312 1.70301 13.5395 1.5831C13.6478 1.46319 13.7976 1.38882 13.9586 1.375C14.0441 1.36932 14.1298 1.38129 14.2105 1.41014C14.2912 1.439 14.3651 1.48414 14.4276 1.54275C14.49 1.60136 14.5398 1.6722 14.5738 1.75086C14.6078 1.82952 14.6252 1.91432 14.625 2V5.125H17.4375C17.5204 5.125 17.5999 5.09208 17.6585 5.03347C17.7171 4.97487 17.75 4.89538 17.75 4.8125V4.5C17.75 3.33968 17.2891 2.22688 16.4686 1.40641C15.6481 0.585936 14.5353 0.125 13.375 0.125Z" fill="#E4E4E7"/>
</svg>
