<svg width="17" height="18" viewBox="0 0 17 18" fill="none" xmlns="http://www.w3.org/2000/svg">
<path d="M3.38654 13.9781C2.82404 13.9781 2.36381 14.4844 2.36381 15.1031C2.36381 15.1875 2.72177 15.4125 3.38654 15.4125C4.05131 15.4125 4.40927 15.1875 4.40927 15.1031C4.40927 14.4844 3.94904 13.9781 3.38654 13.9781Z" fill="#C41C22"/>
<path d="M3.38654 7.50936C3.59836 7.50936 3.77006 7.32048 3.77006 7.08749C3.77006 6.85449 3.59836 6.66561 3.38654 6.66561C3.17473 6.66561 3.00302 6.85449 3.00302 7.08749C3.00302 7.32048 3.17473 7.50936 3.38654 7.50936Z" fill="#C41C22"/>
<path d="M3.02859 0.168777L0.47177 2.98128H3.02859V0.168777Z" fill="#C41C22"/>
<path d="M3.38654 13.4156C3.59836 13.4156 3.77006 13.2267 3.77006 12.9937C3.77006 12.7607 3.59836 12.5719 3.38654 12.5719C3.17473 12.5719 3.00302 12.7607 3.00302 12.9937C3.00302 13.2267 3.17473 13.4156 3.38654 13.4156Z" fill="#C41C22"/>
<path d="M3.38654 8.07186C2.82404 8.07186 2.36381 8.57811 2.36381 9.19686C2.36381 9.28124 2.72177 9.50624 3.38654 9.50624C4.05131 9.50624 4.40927 9.28124 4.40927 9.19686C4.40927 8.57811 3.94904 8.07186 3.38654 8.07186Z" fill="#C41C22"/>
<path d="M5.9945 5.03437L4.46041 3.90937C4.25586 3.76875 4.12802 3.4875 4.12802 3.20625C4.12802 2.925 4.25586 2.67188 4.46041 2.50312L5.9945 1.37813C6.12234 1.29375 6.27575 1.2375 6.42916 1.2375H12.9235V0.84375C12.9235 0.365625 12.5911 0 12.1564 0H3.53995V3.2625C3.53995 3.43125 3.43768 3.54375 3.28427 3.54375H0.318359V17.1562C0.318359 17.6344 0.676314 18 1.0854 18H12.1564C12.5911 18 12.9235 17.6344 12.9235 17.1562V5.175H6.42916C6.27575 5.175 6.12234 5.11875 5.9945 5.03437ZM3.38654 15.975C3.02859 15.975 2.67063 15.9187 2.41495 15.8063C1.92915 15.6094 1.85245 15.2719 1.85245 15.1031C1.85245 14.4563 2.18484 13.8938 2.6962 13.6125C2.56836 13.4438 2.49166 13.2188 2.49166 12.9938C2.49166 12.4594 2.90075 12.0094 3.38654 12.0094C3.87234 12.0094 4.28143 12.4594 4.28143 12.9938C4.28143 13.2188 4.20472 13.4438 4.07688 13.6125C4.56268 13.8938 4.92063 14.4563 4.92063 15.1031C4.92063 15.75 4.10245 15.975 3.38654 15.975ZM3.38654 10.0687C3.02859 10.0687 2.67063 10.0125 2.41495 9.9C1.92915 9.70312 1.85245 9.36563 1.85245 9.19688C1.85245 8.55 2.18484 7.9875 2.6962 7.70625C2.56836 7.5375 2.49166 7.3125 2.49166 7.0875C2.49166 6.55313 2.90075 6.10313 3.38654 6.10313C3.87234 6.10313 4.28143 6.55313 4.28143 7.0875C4.28143 7.3125 4.20472 7.5375 4.07688 7.70625C4.56268 7.9875 4.92063 8.55 4.92063 9.19688C4.92063 9.84375 4.10245 10.0687 3.38654 10.0687ZM10.9036 15.1031H6.09677C5.96893 15.1031 5.84109 14.9625 5.84109 14.8219C5.84109 14.6531 5.96893 14.5406 6.09677 14.5406H10.9036C11.0314 14.5406 11.1593 14.6531 11.1593 14.8219C11.1593 14.9906 11.0314 15.1031 10.9036 15.1031ZM5.84109 13.1344C5.84109 12.9656 5.96893 12.8531 6.09677 12.8531H8.47461C8.62802 12.8531 8.73029 12.9656 8.73029 13.1344C8.73029 13.275 8.62802 13.4156 8.47461 13.4156H6.09677C5.96893 13.4156 5.84109 13.3031 5.84109 13.1344ZM11.1593 8.91563C11.1593 9.05625 11.0314 9.19688 10.9036 9.19688H6.09677C5.96893 9.19688 5.84109 9.05625 5.84109 8.91563C5.84109 8.74687 5.96893 8.63438 6.09677 8.63438H10.9036C11.0314 8.63438 11.1593 8.74687 11.1593 8.91563ZM8.73029 7.22813C8.73029 7.36875 8.62802 7.50938 8.47461 7.50938H6.09677C5.96893 7.50938 5.84109 7.36875 5.84109 7.22813C5.84109 7.05938 5.96893 6.94688 6.09677 6.94688H8.47461C8.62802 6.94688 8.73029 7.05938 8.73029 7.22813Z" fill="#C41C22"/>
<path d="M16.1706 1.79997H15.3269V4.61247H16.1706C16.4519 4.61247 16.682 4.33122 16.682 4.02185V2.3906C16.682 2.08122 16.4519 1.79997 16.1706 1.79997Z" fill="#C41C22"/>
<path d="M14.8155 1.79997H6.68484V4.61247H14.8155V1.79997Z" fill="#C41C22"/>
<path d="M4.63938 3.20622C4.63938 3.2906 4.69052 3.37497 4.76722 3.43122L6.17347 4.47185V1.9406L4.76722 2.98122C4.69052 3.03747 4.63938 3.12185 4.63938 3.20622Z" fill="#C41C22"/>
</svg>
