<svg width="14" height="14" viewBox="0 0 14 14" fill="none" xmlns="http://www.w3.org/2000/svg">
<path d="M13.4663 4.57513C13.4526 4.29933 13.2179 4.08688 12.9421 4.10062C12.6663 4.11435 12.4539 4.34907 12.4676 4.62487L13.4663 4.57513ZM12.1213 12.1213L12.4749 12.4749L12.4749 12.4749L12.1213 12.1213ZM1.87868 12.1213L1.52512 12.4749L1.52513 12.4749L1.87868 12.1213ZM1.87868 1.87868L1.52513 1.52512L1.52512 1.52513L1.87868 1.87868ZM8.78857 1.51192C9.06464 1.51823 9.29356 1.29955 9.29987 1.02348C9.30618 0.747411 9.0875 0.518494 8.81143 0.512181L8.78857 1.51192ZM4.47368 6.18421C4.19754 6.18421 3.97368 6.40807 3.97368 6.68421C3.97368 6.96035 4.19754 7.18421 4.47368 7.18421L4.47368 6.18421ZM6.68421 8.89474L6.25009 9.14281C6.33977 9.29975 6.50717 9.39607 6.68793 9.39472C6.86868 9.39338 7.03463 9.29458 7.12197 9.13632L6.68421 8.89474ZM13.1739 2.41614C13.4328 2.32008 13.5648 2.03234 13.4688 1.77344C13.3727 1.51454 13.085 1.38254 12.8261 1.47859L13.1739 2.41614ZM12.4676 4.62487C12.4999 5.27298 12.5 6.04804 12.5 7H13.5C13.5 6.05647 13.5001 5.25351 13.4663 4.57513L12.4676 4.62487ZM12.5 7C12.5 8.42833 12.4989 9.4493 12.3946 10.2252C12.2922 10.9867 12.0987 11.4368 11.7678 11.7678L12.4749 12.4749C13.0226 11.9271 13.2684 11.2308 13.3857 10.3584C13.5011 9.50042 13.5 8.40007 13.5 7H12.5ZM11.7678 11.7678C11.4368 12.0987 10.9867 12.2922 10.2252 12.3946C9.4493 12.4989 8.42833 12.5 7 12.5V13.5C8.40007 13.5 9.50042 13.5011 10.3584 13.3857C11.2308 13.2684 11.9271 13.0226 12.4749 12.4749L11.7678 11.7678ZM7 12.5C5.57165 12.5 4.55069 12.4989 3.77481 12.3946C3.01331 12.2922 2.56318 12.0987 2.23222 11.7678L1.52513 12.4749C2.07286 13.0226 2.76918 13.2684 3.64156 13.3857C4.49957 13.5011 5.59992 13.5 7 13.5V12.5ZM2.23224 11.7678C1.90128 11.4368 1.70776 10.9867 1.60538 10.2252C1.50106 9.4493 1.5 8.42833 1.5 7H0.5C0.5 8.40007 0.498938 9.50042 0.614293 10.3584C0.731582 11.2308 0.9774 11.9272 1.52512 12.4749L2.23224 11.7678ZM1.5 7C1.5 5.57165 1.50106 4.55069 1.60538 3.77481C1.70776 3.01331 1.90128 2.56319 2.23223 2.23223L1.52512 1.52513C0.977401 2.07285 0.731582 2.76918 0.614293 3.64156C0.498938 4.49956 0.5 5.59992 0.5 7H1.5ZM2.23223 2.23223C2.56319 1.90128 3.01331 1.70776 3.77481 1.60538C4.55069 1.50106 5.57165 1.5 7 1.5V0.5C5.59992 0.5 4.49956 0.498938 3.64156 0.614293C2.76918 0.731582 2.07285 0.977401 1.52513 1.52512L2.23223 2.23223ZM7 1.5C7.67864 1.5 8.26846 1.50003 8.78857 1.51192L8.81143 0.512181C8.27756 0.499973 7.67534 0.5 7 0.5V1.5ZM4.47368 6.68421C4.47368 7.18421 4.47312 7.18421 4.47255 7.18421C4.47237 7.18421 4.47181 7.18421 4.47145 7.18421C4.47071 7.1842 4.46999 7.1842 4.46929 7.18419C4.46788 7.18418 4.46652 7.18416 4.46521 7.18413C4.46261 7.18409 4.46021 7.18402 4.45803 7.18394C4.45367 7.18378 4.45016 7.18357 4.4475 7.18337C4.44216 7.18297 4.44025 7.18263 4.44164 7.18284C4.44432 7.18325 4.46071 7.18594 4.48985 7.19521C4.54754 7.21357 4.66018 7.2593 4.81853 7.37014C5.13668 7.59285 5.64389 8.08196 6.25009 9.14281L7.11833 8.64667C6.46137 7.49698 5.86332 6.88084 5.39199 6.55091C5.15561 6.38544 4.95246 6.29301 4.79305 6.24229C4.71363 6.21702 4.64614 6.20245 4.59208 6.19422C4.56509 6.19011 4.54159 6.18761 4.52176 6.18613C4.51185 6.18539 4.50287 6.18491 4.49485 6.18462C4.49084 6.18447 4.48706 6.18437 4.48354 6.1843C4.48177 6.18427 4.48007 6.18425 4.47843 6.18423C4.4776 6.18423 4.4768 6.18422 4.47601 6.18422C4.47561 6.18421 4.47503 6.18421 4.47483 6.18421C4.47426 6.18421 4.47368 6.18421 4.47368 6.68421ZM6.68421 8.89474C7.12197 9.13632 7.12195 9.13637 7.12193 9.1364C7.12194 9.13638 7.12194 9.13638 7.12196 9.13634C7.12201 9.13626 7.1221 9.13609 7.12224 9.13583C7.12253 9.13532 7.123 9.13446 7.12367 9.13326C7.125 9.13086 7.1271 9.12708 7.12995 9.12198C7.13566 9.11178 7.14436 9.09626 7.15598 9.07574C7.17921 9.03471 7.21405 8.97369 7.25972 8.89523C7.35107 8.73828 7.48561 8.51173 7.65695 8.23582C8 7.68342 8.48882 6.93602 9.07245 6.15442C9.65707 5.3715 10.3306 4.56272 11.042 3.88287C11.7586 3.19811 12.4856 2.67154 13.1739 2.41614L12.8261 1.47859C11.954 1.80214 11.1113 2.43347 10.3512 3.15989C9.58582 3.89122 8.87542 4.74692 8.27119 5.5561C7.66597 6.36661 7.16098 7.13895 6.80744 7.70826C6.63048 7.9932 6.49103 8.228 6.39546 8.39218C6.34767 8.47429 6.31083 8.53879 6.28573 8.58313C6.27318 8.6053 6.26357 8.62243 6.25699 8.6342C6.2537 8.64009 6.25117 8.64464 6.24941 8.64781C6.24853 8.6494 6.24784 8.65064 6.24734 8.65153C6.2471 8.65197 6.2469 8.65233 6.24675 8.6526C6.24668 8.65274 6.2466 8.65287 6.24656 8.65294C6.2465 8.65306 6.24645 8.65315 6.68421 8.89474Z" fill="#19C964"/>
</svg>
