<svg width="21" height="20" viewBox="0 0 21 20" fill="none" xmlns="http://www.w3.org/2000/svg">
<g clip-path="url(#clip0_179_4937)">
<path d="M1.65 7.66667H19.3469C19.9812 7.66667 20.4969 7.15104 20.4969 6.51666C20.4969 6.28854 20.4281 6.06666 20.3031 5.87916L17.9438 2.33541C17.6656 1.91666 17.2 1.66666 16.6969 1.66666H4.30312C3.80312 1.66666 3.33438 1.91666 3.05625 2.33541L0.69375 5.87604C0.56875 6.06666 0.5 6.28854 0.5 6.51354C0.5 7.15104 1.01562 7.66667 1.65 7.66667ZM2.5 8.66667V13.6667V16.1667C2.5 16.9948 3.17188 17.6667 4 17.6667H11C11.8281 17.6667 12.5 16.9948 12.5 16.1667V13.6667V8.66667H10.5V13.6667H4.5V8.66667H2.5ZM16.5 8.66667V16.6667C16.5 17.2198 16.9469 17.6667 17.5 17.6667C18.0531 17.6667 18.5 17.2198 18.5 16.6667V8.66667H16.5Z" fill="white"/>
</g>
<defs>
<clipPath id="clip0_179_4937">
<rect width="20" height="20" fill="white" transform="translate(0.5)"/>
</clipPath>
</defs>
</svg>
