<svg width="39" height="26" viewBox="0 0 39 26" fill="none" xmlns="http://www.w3.org/2000/svg">
<g filter="url(#filter0_dd_5_3426)">
<rect x="3.5" y="2" width="32" height="20" rx="6" fill="#016FEE" shape-rendering="crispEdges"/>
<g clip-path="url(#clip0_5_3426)">
<path d="M27.4034 11.6524C25.8978 9.13335 22.9142 7.42859 19.5 7.42859C16.0858 7.42859 13.1022 9.13335 11.5966 11.6524C11.5331 11.7602 11.5 11.8793 11.5 12C11.5 12.1208 11.5331 12.2398 11.5966 12.3476C13.1022 14.8667 16.0858 16.5714 19.5 16.5714C22.9142 16.5714 25.8978 14.8667 27.4034 12.3476C27.4669 12.2398 27.5 12.1208 27.5 12C27.5 11.8793 27.4669 11.7602 27.4034 11.6524ZM19.5 15.4286C18.7088 15.4286 17.9354 15.2275 17.2775 14.8508C16.6197 14.474 16.1069 13.9386 15.8042 13.3121C15.5014 12.6856 15.4222 11.9962 15.5765 11.3311C15.7309 10.6661 16.1119 10.0551 16.6713 9.57565C17.2308 9.09616 17.9436 8.76962 18.7196 8.63733C19.4956 8.50503 20.2999 8.57293 21.0309 8.83243C21.7618 9.09193 22.3866 9.53138 22.8262 10.0952C23.2657 10.659 23.5003 11.3219 23.5003 12C23.5007 12.4504 23.3975 12.8963 23.1966 13.3124C22.9957 13.7286 22.701 14.1066 22.3295 14.4251C21.9579 14.7435 21.5168 14.9961 21.0313 15.1682C20.5458 15.3404 20.0254 15.4289 19.5 15.4286ZM19.5 9.7143C19.262 9.71725 19.0256 9.74768 18.7972 9.80478C18.9831 10.0245 19.0716 10.2938 19.0467 10.5644C19.0217 10.835 18.885 11.0891 18.6611 11.281C18.4371 11.4729 18.1407 11.5901 17.825 11.6115C17.5093 11.6329 17.195 11.557 16.9387 11.3976C16.7928 11.8581 16.8191 12.3462 17.0139 12.7933C17.2087 13.2403 17.5621 13.6237 18.0245 13.8895C18.4868 14.1553 19.0348 14.2902 19.5913 14.2751C20.1477 14.26 20.6847 14.0957 21.1265 13.8053C21.5683 13.5149 21.8927 13.1131 22.0541 12.6565C22.2155 12.1998 22.2057 11.7112 22.0261 11.2596C21.8466 10.8079 21.5063 10.4159 21.0531 10.1387C20.5999 9.86146 20.0567 9.71304 19.5 9.7143Z" fill="white"/>
</g>
</g>
<defs>
<filter id="filter0_dd_5_3426" x="0.5" y="0" width="38" height="26" filterUnits="userSpaceOnUse" color-interpolation-filters="sRGB">
<feFlood flood-opacity="0" result="BackgroundImageFix"/>
<feColorMatrix in="SourceAlpha" type="matrix" values="0 0 0 0 0 0 0 0 0 0 0 0 0 0 0 0 0 0 127 0" result="hardAlpha"/>
<feOffset dy="1"/>
<feGaussianBlur stdDeviation="1.5"/>
<feComposite in2="hardAlpha" operator="out"/>
<feColorMatrix type="matrix" values="0 0 0 0 0 0 0 0 0 0 0 0 0 0 0 0 0 0 0.2 0"/>
<feBlend mode="normal" in2="BackgroundImageFix" result="effect1_dropShadow_5_3426"/>
<feColorMatrix in="SourceAlpha" type="matrix" values="0 0 0 0 0 0 0 0 0 0 0 0 0 0 0 0 0 0 127 0" result="hardAlpha"/>
<feOffset/>
<feGaussianBlur stdDeviation="0.5"/>
<feComposite in2="hardAlpha" operator="out"/>
<feColorMatrix type="matrix" values="0 0 0 0 0 0 0 0 0 0 0 0 0 0 0 0 0 0 0.12549 0"/>
<feBlend mode="normal" in2="effect1_dropShadow_5_3426" result="effect2_dropShadow_5_3426"/>
<feBlend mode="normal" in="SourceGraphic" in2="effect2_dropShadow_5_3426" result="shape"/>
</filter>
<clipPath id="clip0_5_3426">
<rect width="16" height="16" fill="white" transform="translate(11.5 4)"/>
</clipPath>
</defs>
</svg>
