<svg width="16" height="19" viewBox="0 0 16 19" fill="none" xmlns="http://www.w3.org/2000/svg">
<path d="M11 8.09998C11 9.75688 9.6569 11.1 8 11.1C6.3431 11.1 5 9.75688 5 8.09998C5 6.44313 6.3431 5.09998 8 5.09998C9.6569 5.09998 11 6.44313 11 8.09998Z" stroke="#007AFF"/>
<path d="M8 0.599976C12.0588 0.599976 15.5 4.02801 15.5 8.18688C15.5 12.412 12.0028 15.377 8.7725 17.3932C8.5371 17.5287 8.2709 17.6 8 17.6C7.7291 17.6 7.4629 17.5287 7.2275 17.3932C4.00325 15.3573 0.5 12.4266 0.5 8.18688C0.5 4.02801 3.9412 0.599976 8 0.599976Z" stroke="#007AFF"/>
</svg>
