<svg width="40" height="40" viewBox="0 0 40 40" fill="none" xmlns="http://www.w3.org/2000/svg">
<path d="M14.1948 19.6909C17.8202 19.6909 20.7591 16.7519 20.7591 13.1266C20.7591 9.5012 17.8202 6.56226 14.1948 6.56226C10.5694 6.56226 7.63049 9.5012 7.63049 13.1266C7.63049 16.7519 10.5694 19.6909 14.1948 19.6909Z" fill="#001F2A"/>
<path fill-rule="evenodd" clip-rule="evenodd" d="M7.77291 19.0001C8.45806 18.7158 9.24271 18.7925 9.84825 19.2161C10.7409 19.8444 12.2392 20.6205 14.215 20.6148C16.1766 20.6092 17.6635 19.8359 18.5476 19.2104C19.1446 18.7897 19.9236 18.7186 20.5974 19.0029C22.2121 19.6881 23.8298 20.3704 25.4445 21.0555C26.2377 21.391 26.7523 22.1699 26.7523 23.0313V31.29C26.7523 32.4755 25.7914 33.4364 24.6059 33.4364H3.86389C2.68408 33.4364 1.72317 32.4812 1.71749 31.3014C1.70327 28.521 1.68906 25.7435 1.67768 22.9631C1.67484 22.0903 2.19794 21.3028 3.00249 20.9702C4.59168 20.3135 6.18088 19.6568 7.76723 19.0001H7.77291Z" fill="#3E9FCC"/>
<path d="M26.0556 19.617L23.6334 18.5907L21.2084 17.5644C21.1544 17.5416 21.0975 17.5189 21.0407 17.4962C21.8537 16.2339 22.3228 14.7328 22.3228 13.1266C22.3228 8.64329 18.6753 4.99866 14.1949 4.99866C9.71444 4.99866 6.06697 8.64329 6.06697 13.1266C6.06697 14.73 6.53321 16.2282 7.34344 17.4876C7.28658 17.5075 7.23256 17.5303 7.17571 17.553L4.37543 18.7101L2.41096 19.526C1.0094 20.1031 0.111038 21.4563 0.119567 22.9688L0.139467 27.1394L0.159368 31.3099C0.17074 33.3455 1.83385 35 3.86939 35H24.6114C26.6554 35 28.3185 33.3369 28.3185 31.29V23.0313C28.3185 21.5388 27.4315 20.1969 26.0556 19.617ZM14.1949 6.56227C17.8196 6.56227 20.7592 9.49901 20.7592 13.1266C20.7592 14.7129 20.1963 16.1657 19.2638 17.3C18.0584 18.7584 16.2361 19.6909 14.1949 19.6909C12.1537 19.6909 10.3342 18.7613 9.1288 17.3028C8.19347 16.1685 7.63057 14.7129 7.63057 13.1266C7.63057 9.49901 10.5702 6.56227 14.1949 6.56227ZM26.7549 31.29C26.7549 32.4755 25.794 33.4364 24.6114 33.4364H3.86939C2.68673 33.4364 1.72866 32.4812 1.72298 31.3014C1.70876 28.521 1.69455 25.7435 1.68318 22.9631C1.67749 22.0903 2.20059 21.3028 3.00798 20.9702C4.59717 20.3135 6.18353 19.6568 7.77272 18.9972C7.9831 18.9119 8.202 18.8579 8.42375 18.8409C8.48914 18.8323 8.55453 18.8295 8.61991 18.8295C9.05488 18.8295 9.48416 18.9574 9.8509 19.2161C10.7379 19.8387 12.2304 20.6148 14.1949 20.6148H14.2148C16.1764 20.6092 17.6633 19.833 18.5502 19.2104C18.9056 18.9574 19.3292 18.8295 19.7528 18.8295C19.8239 18.8295 19.895 18.8295 19.966 18.8409C20.1821 18.8636 20.3953 18.9176 20.6 19.0029C22.2148 19.6881 23.8324 20.3704 25.4472 21.0555C26.2404 21.391 26.7549 22.1699 26.7549 23.0313V31.29Z" fill="white"/>
<path fill-rule="evenodd" clip-rule="evenodd" d="M39.8807 12.6717V33.1948C39.8807 34.1841 39.0392 34.9944 38.0158 34.9944H22.7265C21.7031 34.9944 20.8644 34.1841 20.8644 33.1948V12.6717C20.8644 11.6795 21.7031 10.8721 22.7265 10.8721H27.3434C27.4657 9.8686 28.094 9.02425 28.9639 8.59496C29.3562 8.40165 29.7969 8.29077 30.2631 8.29077C30.9483 8.29077 31.5794 8.52673 32.0798 8.9219C32.6739 9.39098 33.0833 10.0818 33.18 10.8721H38.0158C39.0392 10.8721 39.8807 11.6795 39.8807 12.6717Z" fill="white"/>
<path fill-rule="evenodd" clip-rule="evenodd" d="M34.6952 12.1173V13.1777C34.6952 14.005 34.0214 14.6788 33.1941 14.6788H27.5367C26.7094 14.6788 26.0357 14.005 26.0357 13.1777V12.1173H34.6952Z" fill="#001F2A"/>
<path fill-rule="evenodd" clip-rule="evenodd" d="M30.5017 10.5993H30.2544C30.2942 10.5907 30.334 10.5879 30.3766 10.5879C30.4193 10.5879 30.4591 10.5879 30.4989 10.5993H30.5017Z" fill="#001F2A"/>
<path fill-rule="evenodd" clip-rule="evenodd" d="M31.9739 10.5992C31.6925 10.0022 31.0841 9.58716 30.379 9.58716C29.674 9.58716 29.0656 10.0022 28.7842 10.5992C28.6761 10.8238 28.6193 11.0797 28.6193 11.3469C28.6193 11.6142 28.6847 11.8871 28.7955 12.1202H31.9654C32.0791 11.8871 32.1417 11.6255 32.1417 11.3469C32.1417 11.0683 32.082 10.8238 31.9768 10.5992H31.9739ZM30.379 12.106C29.9611 12.106 29.62 11.7648 29.62 11.3441C29.62 10.9688 29.8958 10.6561 30.254 10.5964C30.2938 10.5879 30.3336 10.585 30.3762 10.585C30.4188 10.585 30.4586 10.585 30.4984 10.5964C30.8595 10.6561 31.1324 10.9688 31.1324 11.3441C31.1324 11.7648 30.7941 12.106 30.3734 12.106H30.379Z" fill="#001F2A"/>
<path fill-rule="evenodd" clip-rule="evenodd" d="M30.5017 10.5993H30.2544C30.2942 10.5907 30.334 10.5879 30.3766 10.5879C30.4193 10.5879 30.4591 10.5879 30.4989 10.5993H30.5017Z" fill="#001F2A"/>
<path fill-rule="evenodd" clip-rule="evenodd" d="M38.5922 13.7264V32.0917C38.5922 32.9758 37.8644 33.7008 36.9803 33.7008H23.7607C22.8765 33.7008 22.1487 32.9758 22.1487 32.0917V13.7264C22.1487 12.8423 22.8765 12.1173 23.7607 12.1173H26.035V13.1408H23.846C23.4764 13.1408 23.175 13.4421 23.175 13.8145V32.0036C23.175 32.376 23.4764 32.6773 23.846 32.6773H36.8921C37.2646 32.6773 37.5659 32.376 37.5659 32.0036V13.8145C37.5659 13.4421 37.2646 13.1408 36.8921 13.1408H34.6946V12.1173H36.9803C37.8644 12.1173 38.5922 12.8423 38.5922 13.7264Z" fill="#001F2A"/>
<path d="M34.0497 18.8323H25.393C24.9486 18.8323 24.5884 19.1925 24.5884 19.6368C24.5884 20.0812 24.9486 20.4414 25.393 20.4414H34.0497C34.494 20.4414 34.8542 20.0812 34.8542 19.6368C34.8542 19.1925 34.494 18.8323 34.0497 18.8323Z" fill="black"/>
<path d="M34.0497 23.6085H25.393C24.9486 23.6085 24.5884 23.9687 24.5884 24.4131C24.5884 24.8574 24.9486 25.2176 25.393 25.2176H34.0497C34.494 25.2176 34.8542 24.8574 34.8542 24.4131C34.8542 23.9687 34.494 23.6085 34.0497 23.6085Z" fill="black"/>
<path d="M34.0497 28.3875H25.393C24.9486 28.3875 24.5884 28.7477 24.5884 29.192C24.5884 29.6363 24.9486 29.9965 25.393 29.9965H34.0497C34.494 29.9965 34.8542 29.6363 34.8542 29.192C34.8542 28.7477 34.494 28.3875 34.0497 28.3875Z" fill="black"/>
<path d="M36.1479 28.7598H34.8231L34.843 20.3135V17.8572L34.8458 17.8544H36.1479V18.9574H36.1508L36.1479 28.7598Z" fill="#3E9FCC"/>
<path d="M34.8458 17.8544H34.843L33.4357 17.8573V16.9163C33.4357 16.1657 34.0441 15.5602 34.7918 15.5602C34.8145 15.5602 34.8316 15.5602 34.8515 15.563L34.8458 17.8544Z" fill="#410002"/>
<path d="M36.1482 17.8574H34.8461L34.8518 15.5631C35.2015 15.5773 35.5227 15.7252 35.753 15.9554C35.9975 16.1999 36.1482 16.5382 36.1482 16.9163V17.8574Z" fill="#BA1A1A"/>
<path d="M35.4399 30.1643L34.8201 30.1671L34.8229 28.7627L36.1478 28.7599L35.4399 30.1643Z" fill="#DCE3E9"/>
<path d="M34.8204 30.1671H34.1722L33.4358 28.7599L34.8232 28.7627L34.8204 30.1671Z" fill="#40484C"/>
<path d="M34.8178 31.3953L34.815 31.3981L34.1725 30.1671H34.8206L34.8178 31.3953Z" fill="#003547"/>
<path d="M34.8171 31.3953L34.82 30.1671L35.4397 30.1643L34.8171 31.3953Z" fill="#3E9FCC"/>
<path d="M34.8232 28.7628L33.4358 28.7599V17.8573H34.8431V20.3136L34.8232 28.7628Z" fill="#003547"/>
</svg>
