<svg width="72" height="64" viewBox="0 0 72 64" fill="none" xmlns="http://www.w3.org/2000/svg">
<path d="M71.1827 55C73.4952 59 70.5952 64 65.9827 64H6.00772C1.39522 64 -1.49227 58.9875 0.807725 55L30.7952 3C33.1077 -1 38.8827 -1 41.1952 3L71.1827 55ZM35.9952 44.25C32.8202 44.25 30.2452 46.825 30.2452 50C30.2452 53.175 32.8202 55.75 35.9952 55.75C39.1702 55.75 41.7452 53.175 41.7452 50C41.7452 46.825 39.1702 44.25 35.9952 44.25ZM30.5327 23.5875L31.4577 40.5875C31.4952 41.3875 32.1577 42 32.9577 42H39.0202C39.8202 42 40.4702 41.375 40.5202 40.5875L41.4452 23.5875C41.4952 22.725 40.8077 22 39.9452 22H32.0202C31.1577 22 30.4702 22.725 30.5202 23.5875H30.5327Z" fill="#FF9500"/>
</svg>
