<svg width="16" height="16" viewBox="0 0 16 16" fill="none" xmlns="http://www.w3.org/2000/svg">
<path d="M2.51987 2.51992C-0.507428 5.54722 -0.507428 10.4528 2.51987 13.4801C5.54717 16.5074 10.4527 16.5074 13.48 13.4801C16.5073 10.4528 16.5073 5.54722 13.48 2.51992C10.4527 -0.507378 5.54717 -0.507378 2.51987 2.51992ZM11.8006 5.43674C11.9465 5.58258 11.9465 5.82123 11.8006 5.96707L9.76772 8L11.8006 10.0329C11.9465 10.1788 11.9465 10.4174 11.8006 10.5633L10.5632 11.8007C10.4174 11.9465 10.1787 11.9465 10.0329 11.8007L7.99995 9.76777L5.96702 11.8007C5.82118 11.9465 5.58253 11.9465 5.43669 11.8007L4.19925 10.5633C4.05341 10.4174 4.05341 10.1788 4.19925 10.0329L6.23218 8L4.19925 5.96707C4.05341 5.82123 4.05341 5.58258 4.19925 5.43674L5.43669 4.1993C5.58253 4.05346 5.82118 4.05346 5.96702 4.1993L7.99995 6.23223L10.0329 4.1993C10.1787 4.05346 10.4174 4.05346 10.5632 4.1993L11.8006 5.43674Z" fill="#FF3B30"/>
</svg>
