<svg width="12" height="16" viewBox="0 0 12 16" fill="none" xmlns="http://www.w3.org/2000/svg">
<path fillRule="evenodd" clipRule="evenodd" d="M10.4089 7.24704H10.698C10.7313 7.24704 12 7.40336 12 8.75648V14.4085C12 15.8414 10.6596 16 10.6264 16H1.44585C1.41315 16 0 15.6819 0 14.4085V8.67728C0 7.4832 1.25595 7.2472 1.44585 7.2472C1.62615 7.2472 1.59 7.24432 1.59 7.24432L1.5927 4.74272C1.5183 1.7512 3.65775 0 6.0441 0C8.43015 0 10.3945 1.67168 10.4089 4.74272V7.24704ZM3.61425 4.77616L3.6114 7.24704H8.38695L8.38575 4.77616C8.38575 3.02512 7.46115 1.91104 6.00015 1.91104C4.52475 1.91104 3.61425 3.18432 3.61425 4.77616ZM6.81988 12.3248L8 14.5H4L5.18035 12.3249C4.4845 12.0118 4.00015 11.263 4 10.5C4 9.39543 4.89543 8.5 6 8.5C7.10457 8.5 8 9.39543 8 10.5C8 11.3124 7.51561 12.0117 6.81988 12.3248Z" fill="#34C759"/>
</svg>
