<svg width="68" height="24" viewBox="0 0 68 24" fill="none" xmlns="http://www.w3.org/2000/svg">
<path d="M7.21875 18.3V8.85C7.21875 5.61914 9.58324 3 12.5 3C15.4168 3 17.7812 5.61914 17.7812 8.85V18.3M11.2812 11.1H13.7187M6.40625 8.4H18.5937M18.0809 21H6.91897C6.42227 21 6.17393 21 6.05648 20.8132C5.93904 20.6263 6.01753 20.356 6.1745 19.8156C6.45581 18.8469 6.73848 18.3 7.74604 18.3H17.2538C18.2612 18.3 18.5438 18.8469 18.8253 19.8154C18.9824 20.356 19.061 20.6262 18.9435 20.8132C18.8261 21 18.5777 21 18.0809 21Z" stroke="#A6192E" stroke-linecap="round" stroke-linejoin="round"/>
<path d="M26 12H42M42 12L37 7.5M42 12L37 16.5" stroke="black" stroke-linecap="round" stroke-linejoin="round"/>
<path d="M51.2188 18.3V8.85C51.2188 5.61914 53.5832 3 56.5 3C59.4168 3 61.7812 5.61914 61.7812 8.85V18.3M55.2812 11.1H57.7187M50.4063 8.4H62.5937M62.0809 21H50.919C50.4223 21 50.1739 21 50.0565 20.8132C49.939 20.6263 50.0175 20.356 50.1745 19.8156C50.4558 18.8469 50.7385 18.3 51.746 18.3H61.2538C62.2612 18.3 62.5438 18.8469 62.8253 19.8154C62.9824 20.356 63.061 20.6262 62.9435 20.8132C62.8261 21 62.5777 21 62.0809 21Z" stroke="#A6192E" stroke-linecap="round" stroke-linejoin="round"/>
</svg>
