<svg width="68" height="24" viewBox="0 0 68 24" fill="none" xmlns="http://www.w3.org/2000/svg">
<g clip-path="url(#clip0_143_570)">
<path d="M12 15C15.3137 15 18 12.3137 18 9C18 5.68629 15.3137 3 12 3C8.68629 3 6 5.68629 6 9C6 12.3137 8.68629 15 12 15Z" stroke="black" stroke-linecap="round" stroke-linejoin="round"/>
<path d="M3 20.25C4.81594 17.1122 8.11406 15 12 15C15.8859 15 19.1841 17.1122 21 20.25" stroke="black" stroke-linecap="round" stroke-linejoin="round"/>
</g>
<path d="M26 12H42M42 12L37 7.5M42 12L37 16.5" stroke="black" stroke-linecap="round" stroke-linejoin="round"/>
<g clip-path="url(#clip1_143_570)">
<path d="M56 15C59.3137 15 62 12.3137 62 9C62 5.68629 59.3137 3 56 3C52.6863 3 50 5.68629 50 9C50 12.3137 52.6863 15 56 15Z" stroke="black" stroke-linecap="round" stroke-linejoin="round"/>
<path d="M47 20.25C48.8159 17.1122 52.1141 15 56 15C59.8859 15 63.1841 17.1122 65 20.25" stroke="black" stroke-linecap="round" stroke-linejoin="round"/>
</g>
<defs>
<clipPath id="clip0_143_570">
<rect width="24" height="24" fill="white"/>
</clipPath>
<clipPath id="clip1_143_570">
<rect width="24" height="24" fill="white" transform="translate(44)"/>
</clipPath>
</defs>
</svg>
