<svg width="100" height="54" viewBox="0 0 100 54" fill="none" xmlns="http://www.w3.org/2000/svg">
<g filter="url(#filter0_dd_43_2072)">
<path d="M42.7621 15.4573C42.7423 15.0198 42.6789 14.5942 42.5759 14.1828C42.5742 14.1812 42.5727 14.1812 42.571 14.1797C42.426 14.0703 40.9882 12.8124 39.1121 12.4114C37.378 11.9905 33.8343 11.9271 32.9267 11.8225C32.4765 11.7718 32.047 11.6561 31.6539 11.5094C30.3896 11.0426 29.494 10.2595 29.494 10.2595C29.494 10.2595 29.9053 11.9287 30.7114 12.9012C30.7979 13.0027 30.8858 13.097 30.9809 13.1818C32.2863 14.3501 33.9539 14.2827 33.9539 14.2827C33.9539 14.2827 32.849 15.1086 31.8314 16.0772C31.5801 16.3157 31.2068 16.6351 30.8208 16.8381C30.5093 17.0013 29.9426 17.2565 29.3347 17.1178C26.3157 16.4307 23.3728 13.5598 21.121 11.32C17.9229 8.14245 16.1776 3.66666 16.1776 3.66666C16.1776 3.66666 14.3031 7.97759 15.6751 10.2587C16.9979 12.4573 19.0064 13.5947 21.2344 14.8661C24.889 16.9506 28.8528 18.9067 31.1252 19.5931C31.4819 19.7009 31.6816 20.1963 31.7299 20.9778C31.7553 21.5928 31.7038 22.0961 31.6142 22.4322C31.2758 23.698 31.0919 24.3827 30.4935 24.9621C30.1495 25.295 29.7064 25.5724 29.1389 25.8982C28.5992 26.2089 28.1164 26.3714 27.4935 26.6813C26.8555 27.0102 25.2053 27.9772 24.0393 28.7603C22.4716 29.8129 21.4008 30.4588 20.6288 30.9478C19.7086 31.5304 16.4772 33.9541 15.7773 34.4504C15.0775 34.9481 8.23814 40.91 7.54462 41.575C6.8511 42.2407 4.89339 44.4299 3.66962 44.7842C3.3074 44.8888 2.93884 44.9633 2.59961 45.0275C2.65668 45.3438 2.78587 45.706 3.17265 46.1712C4.50739 47.785 6.26775 47.6756 6.65454 46.9234C7.3219 45.6299 8.31344 43.9964 9.45556 42.2194C10.5977 40.4424 15.1987 36.1124 15.7195 35.6558C16.4439 35.0226 21.6013 30.6467 22.5152 30.3994C22.8172 30.3177 23.2039 30.8353 22.9685 31.0517C22.409 31.5692 16.6888 36.0379 14.9205 37.8506C13.4035 39.4041 9.09571 44.4664 8.61304 46.2608C8.41251 47.013 8.57579 47.8024 9.04739 48.0013C9.51896 48.2003 10.78 48.2375 11.5124 47.1493C12.1687 46.1736 12.7147 44.353 14.7691 41.2841C18.2067 36.4857 22.6793 32.6226 22.9559 32.3856L22.959 32.3809C22.959 32.3809 22.9606 32.3792 22.9654 32.3777C22.9654 32.3777 22.967 32.3745 22.9685 32.3745C23.1643 32.2342 26.1373 30.1362 28.9939 28.6215C30.4768 27.8369 31.5801 26.4776 32.2959 25.1461C32.8031 24.2012 33.0021 22.3267 33.0021 22.3267C33.0021 22.3267 33.6694 24.1228 34.443 25.0549C35.3045 26.0924 36.7661 26.4594 37.2853 26.5624C37.8076 25.1722 37.8559 23.5878 38.6477 21.6975C38.8467 21.2211 39.0916 20.7233 39.4047 20.2066C40.1489 18.9764 41.2046 18.0761 42.3206 17.4182C42.407 17.3659 42.4966 17.3152 42.5845 17.2668C42.705 16.7794 42.7692 16.2681 42.7692 15.7427C42.7692 15.6467 42.7668 15.5516 42.7621 15.4573ZM38.0873 17.5617C37.0237 17.5617 36.1605 16.7001 36.1605 15.6364C36.1605 14.5728 37.0237 13.7096 38.0873 13.7096C39.151 13.7096 40.0126 14.5728 40.0126 15.6364C40.0126 16.7001 39.151 17.5617 38.0873 17.5617Z" fill="url(#paint0_linear_43_2072)"/>
</g>
<g filter="url(#filter1_dd_43_2072)">
<path d="M47.8252 15.6667C47.8252 15.6667 47.8205 15.6667 47.8126 15.6682C47.3283 15.4773 46.7148 15.2815 46.1957 15.2537C45.2738 15.2046 43.3859 15.3758 42.755 15.4574C42.7352 15.0199 42.6718 14.5943 42.5687 14.1829C42.7217 14.2844 43.3795 14.1615 44.6604 14.3739C46.7116 14.7132 47.8252 15.6667 47.8252 15.6667Z" fill="#192332"/>
</g>
<g filter="url(#filter2_dd_43_2072)">
<path d="M10.5058 7.30311C10.5209 7.23495 10.6144 7.22702 10.639 7.29201C10.9061 8.00297 11.9784 10.2627 15.4524 12.673C16.4646 13.3752 19.3512 15.218 21.8098 16.521C25.4352 18.4422 31.0373 21.1093 31.325 21.2623C31.4415 21.3242 31.3828 21.5873 31.2227 21.577C31.0658 21.5667 29.8357 21.3202 29.2888 21.1656C28.3028 20.8866 19.7213 18.6634 15.305 16.3324C12.6268 14.9184 11.1637 13.861 10.3822 11.0767C10.0216 9.79107 10.3632 7.95621 10.5058 7.30311Z" fill="url(#paint1_linear_43_2072)"/>
</g>
<g filter="url(#filter3_dd_43_2072)">
<path d="M7.86172 13.4622C7.86568 13.4012 7.94256 13.3782 7.98298 13.4234C9.63554 15.2559 11.2627 16.4028 12.4096 17.0939C13.8577 17.9665 15.1227 18.4635 16.0548 18.825C18.1615 19.6421 19.8275 20.0036 20.5464 20.1636C22.6262 20.6274 25.7181 21.4009 30.4198 22.7911C30.4967 22.8141 30.4801 22.9282 30.4 22.9291C26.1112 22.9591 22.5636 22.5937 19.9766 22.4321C12.9344 21.9922 10.1951 20.2817 9.32406 19.1737C7.86092 17.3142 7.75868 14.9761 7.86172 13.4622Z" fill="url(#paint2_linear_43_2072)"/>
</g>
<g filter="url(#filter4_dd_43_2072)">
<path d="M7.29332 20.2709C7.29491 20.2257 7.34643 20.2019 7.37971 20.232C8.3554 21.1023 9.89463 22.265 12.0085 23.0544C14.6566 24.0428 16.7522 23.9009 19.9234 23.8652C22.2821 23.8383 25.7109 23.8652 29.9973 24.1355C30.0591 24.1395 30.0662 24.2291 30.0052 24.2409C27.6401 24.7157 25.6943 25.047 24.5949 25.2166C17.6716 26.2851 14.5099 26.8835 12.0862 26.4261C10.31 26.0917 9.19003 25.1627 8.66293 24.4954C7.44788 22.9585 7.26796 21.0824 7.29332 20.2709Z" fill="url(#paint3_linear_43_2072)"/>
</g>
<g filter="url(#filter5_dd_43_2072)">
<path d="M7.00247 27.8591C6.99375 27.8377 7.01198 27.8163 7.03417 27.8219C8.04474 28.0581 9.56814 28.4853 11.422 28.3696C13.5842 28.2349 15.5744 27.917 18.9509 27.2885C20.6193 26.9777 23.1081 26.6441 26.1262 26.2161C26.1587 26.2113 26.1722 26.2573 26.1421 26.2708C22.3582 27.978 19.0151 29.3619 16.2481 30.4541C13.6389 31.4845 11.5377 31.8634 10.1285 31.3806C8.29678 30.7537 7.42493 28.8983 7.00247 27.8591Z" fill="url(#paint4_linear_43_2072)"/>
</g>
<g filter="url(#filter6_dd_43_2072)">
<path d="M38.081 13.7119C37.0174 13.7119 36.1543 14.5751 36.1543 15.6387C36.1543 16.7024 37.0174 17.5639 38.081 17.5639C39.1447 17.5639 40.0063 16.7024 40.0063 15.6387C40.0063 14.5751 39.1447 13.7119 38.081 13.7119ZM38.081 16.5082C37.6 16.5082 37.21 16.1182 37.21 15.6387C37.21 15.1592 37.6 14.7676 38.081 14.7676C38.5621 14.7676 38.9505 15.1576 38.9505 15.6387C38.9505 16.1198 38.5606 16.5082 38.081 16.5082Z" fill="url(#paint5_linear_43_2072)"/>
</g>
<g filter="url(#filter7_dd_43_2072)">
<path d="M38.9505 15.6388C38.9505 16.1199 38.5606 16.5083 38.081 16.5083C37.6 16.5083 37.21 16.1183 37.21 15.6388C37.21 15.1593 37.6 14.7677 38.081 14.7677C38.5621 14.7677 38.9505 15.1577 38.9505 15.6388Z" fill="#22273E"/>
</g>
<g filter="url(#filter8_dd_43_2072)">
<path d="M37.2844 26.5663C37.275 26.5941 37.2646 26.6218 37.2536 26.6495C36.5632 28.4083 33.6544 32.2183 29.9656 32.8318C24.1899 33.7924 22.9678 32.3784 22.9678 32.3784C23.1636 32.2381 26.1366 30.1401 28.9931 28.6255C30.476 27.8408 31.5793 26.4815 32.295 25.1499C32.8023 24.2052 33.0013 22.3307 33.0013 22.3307C33.0013 22.3307 33.6686 24.1267 34.4421 25.0588C35.3037 26.0963 36.7653 26.4633 37.2844 26.5663Z" fill="url(#paint6_linear_43_2072)"/>
</g>
<g filter="url(#filter9_dd_43_2072)">
<path d="M27.4935 26.6813C27.0822 27.1607 25.2798 28.0754 24.0909 28.8236C23.0486 29.4798 21.3628 30.5221 20.6185 31.0493C19.73 31.6785 16.478 33.9541 15.7774 34.4503C15.0775 34.948 8.23816 40.9099 7.54464 41.5749C6.85112 42.2407 4.89341 44.4298 3.66964 44.7841C3.30742 44.8887 2.93886 44.9633 2.59963 45.0275C2.53781 44.6668 2.57189 44.3593 2.44666 44.0137C2.27546 43.5374 1.89184 42.6401 1.69607 42.186C1.6279 42.0243 1.68101 41.8388 1.82526 41.739C3.72908 40.432 16.0674 32.208 18.4 30.8876C20.7184 29.5758 23.6399 28.2125 24.656 27.7853C25.3218 27.5056 26.4814 27.1806 27.4943 26.6796L27.4935 26.6813Z" fill="url(#paint7_linear_43_2072)"/>
</g>
<g filter="url(#filter10_dd_43_2072)">
<path d="M42.5759 17.2668C42.6964 16.7794 42.7606 16.2681 42.7606 15.7426C42.7606 15.6467 42.7598 15.5516 42.755 15.4573C43.3859 15.3757 45.2739 15.2045 46.1957 15.2536C46.7148 15.2814 47.3259 15.4772 47.8102 15.6681C47.5914 15.6863 44.9941 15.9289 42.5759 17.2668Z" fill="url(#paint8_linear_43_2072)"/>
</g>
<g filter="url(#filter11_dd_43_2072)">
<path d="M41.6659 39.6836V23.9352H53.2414V26.5993H44.8063V30.0906H52.6446V32.744H44.8063V37.0302H53.527V39.6836H41.6659Z" fill="white"/>
</g>
<g filter="url(#filter12_dd_43_2072)">
<path d="M55.6168 39.6836V23.9352H60.3276L63.1565 34.6777L65.9596 23.9352H70.6833V39.6836H67.7634V27.2868L64.6619 39.6836H61.6253L58.5497 27.2868V39.6836H55.6168Z" fill="white"/>
</g>
<g filter="url(#filter13_dd_43_2072)">
<path d="M76.8089 39.6836V26.5993H72.1761V23.9352H84.5696V26.5993H79.9496V39.6836H76.8089Z" fill="white"/>
</g>
<g filter="url(#filter14_dd_43_2072)">
<path d="M85.2837 34.5595L88.3592 34.2587C88.7052 36.2711 89.8385 37.2773 91.7592 37.2773C92.7111 37.2773 93.4592 37.0732 94.0044 36.665C94.5489 36.2496 94.8215 35.7376 94.8215 35.1289C94.8215 34.7708 94.7267 34.4664 94.5363 34.2158C94.3459 33.9651 94.0563 33.761 93.6667 33.6034C93.2778 33.4387 92.3348 33.1666 90.8378 32.787C89.497 32.4504 88.5148 32.0852 87.8918 31.6912C87.2689 31.2974 86.7718 30.7818 86.3992 30.1444C86.0363 29.4998 85.8548 28.8087 85.8548 28.071C85.8548 27.2117 86.0881 26.4382 86.5555 25.7507C87.0311 25.0632 87.6844 24.544 88.5148 24.193C89.3452 23.8421 90.3704 23.6667 91.5904 23.6667C93.4244 23.6667 94.8563 24.0784 95.8859 24.9021C96.9155 25.7256 97.4607 26.9037 97.5207 28.4363L94.3674 28.576C94.2289 27.7309 93.9304 27.1401 93.4718 26.8035C93.0133 26.4669 92.3607 26.2986 91.5126 26.2986C90.6644 26.2986 90.0118 26.4454 89.5533 26.739C89.0948 27.0327 88.8652 27.3978 88.8652 27.8347C88.8652 28.2644 89.0726 28.6261 89.4881 28.9197C89.9037 29.2133 90.8592 29.5356 92.3563 29.8865C93.9392 30.2661 95.0815 30.6672 95.7822 31.0897C96.4911 31.5051 97.0318 32.0458 97.4044 32.7118C97.7763 33.3707 97.9622 34.1728 97.9622 35.1181C97.9622 36.486 97.4518 37.6354 96.4311 38.5664C95.4185 39.4975 93.8311 39.9629 91.6681 39.9629C87.8444 39.9629 85.7163 38.1618 85.2837 34.5595Z" fill="white"/>
</g>
<defs>
<filter id="filter0_dd_43_2072" x="-1.40039" y="0.666656" width="48.1696" height="52.4444" filterUnits="userSpaceOnUse" color-interpolation-filters="sRGB">
<feFlood flood-opacity="0" result="BackgroundImageFix"/>
<feColorMatrix in="SourceAlpha" type="matrix" values="0 0 0 0 0 0 0 0 0 0 0 0 0 0 0 0 0 0 127 0" result="hardAlpha"/>
<feMorphology radius="1" operator="dilate" in="SourceAlpha" result="effect1_dropShadow_43_2072"/>
<feOffset dy="1"/>
<feGaussianBlur stdDeviation="1.5"/>
<feColorMatrix type="matrix" values="0 0 0 0 0 0 0 0 0 0 0 0 0 0 0 0 0 0 0.15 0"/>
<feBlend mode="normal" in2="BackgroundImageFix" result="effect1_dropShadow_43_2072"/>
<feColorMatrix in="SourceAlpha" type="matrix" values="0 0 0 0 0 0 0 0 0 0 0 0 0 0 0 0 0 0 127 0" result="hardAlpha"/>
<feOffset dy="1"/>
<feGaussianBlur stdDeviation="1"/>
<feColorMatrix type="matrix" values="0 0 0 0 0 0 0 0 0 0 0 0 0 0 0 0 0 0 0.3 0"/>
<feBlend mode="normal" in2="effect1_dropShadow_43_2072" result="effect2_dropShadow_43_2072"/>
<feBlend mode="normal" in="SourceGraphic" in2="effect2_dropShadow_43_2072" result="shape"/>
</filter>
<filter id="filter1_dd_43_2072" x="38.5687" y="11.1829" width="13.2565" height="9.48532" filterUnits="userSpaceOnUse" color-interpolation-filters="sRGB">
<feFlood flood-opacity="0" result="BackgroundImageFix"/>
<feColorMatrix in="SourceAlpha" type="matrix" values="0 0 0 0 0 0 0 0 0 0 0 0 0 0 0 0 0 0 127 0" result="hardAlpha"/>
<feMorphology radius="1" operator="dilate" in="SourceAlpha" result="effect1_dropShadow_43_2072"/>
<feOffset dy="1"/>
<feGaussianBlur stdDeviation="1.5"/>
<feColorMatrix type="matrix" values="0 0 0 0 0 0 0 0 0 0 0 0 0 0 0 0 0 0 0.15 0"/>
<feBlend mode="normal" in2="BackgroundImageFix" result="effect1_dropShadow_43_2072"/>
<feColorMatrix in="SourceAlpha" type="matrix" values="0 0 0 0 0 0 0 0 0 0 0 0 0 0 0 0 0 0 127 0" result="hardAlpha"/>
<feOffset dy="1"/>
<feGaussianBlur stdDeviation="1"/>
<feColorMatrix type="matrix" values="0 0 0 0 0 0 0 0 0 0 0 0 0 0 0 0 0 0 0.3 0"/>
<feBlend mode="normal" in2="effect1_dropShadow_43_2072" result="effect2_dropShadow_43_2072"/>
<feBlend mode="normal" in="SourceGraphic" in2="effect2_dropShadow_43_2072" result="shape"/>
</filter>
<filter id="filter2_dd_43_2072" x="6.22217" y="4.24738" width="29.1639" height="22.3299" filterUnits="userSpaceOnUse" color-interpolation-filters="sRGB">
<feFlood flood-opacity="0" result="BackgroundImageFix"/>
<feColorMatrix in="SourceAlpha" type="matrix" values="0 0 0 0 0 0 0 0 0 0 0 0 0 0 0 0 0 0 127 0" result="hardAlpha"/>
<feMorphology radius="1" operator="dilate" in="SourceAlpha" result="effect1_dropShadow_43_2072"/>
<feOffset dy="1"/>
<feGaussianBlur stdDeviation="1.5"/>
<feColorMatrix type="matrix" values="0 0 0 0 0 0 0 0 0 0 0 0 0 0 0 0 0 0 0.15 0"/>
<feBlend mode="normal" in2="BackgroundImageFix" result="effect1_dropShadow_43_2072"/>
<feColorMatrix in="SourceAlpha" type="matrix" values="0 0 0 0 0 0 0 0 0 0 0 0 0 0 0 0 0 0 127 0" result="hardAlpha"/>
<feOffset dy="1"/>
<feGaussianBlur stdDeviation="1"/>
<feColorMatrix type="matrix" values="0 0 0 0 0 0 0 0 0 0 0 0 0 0 0 0 0 0 0.3 0"/>
<feBlend mode="normal" in2="effect1_dropShadow_43_2072" result="effect2_dropShadow_43_2072"/>
<feBlend mode="normal" in="SourceGraphic" in2="effect2_dropShadow_43_2072" result="shape"/>
</filter>
<filter id="filter3_dd_43_2072" x="3.83264" y="10.3997" width="30.637" height="17.5311" filterUnits="userSpaceOnUse" color-interpolation-filters="sRGB">
<feFlood flood-opacity="0" result="BackgroundImageFix"/>
<feColorMatrix in="SourceAlpha" type="matrix" values="0 0 0 0 0 0 0 0 0 0 0 0 0 0 0 0 0 0 127 0" result="hardAlpha"/>
<feMorphology radius="1" operator="dilate" in="SourceAlpha" result="effect1_dropShadow_43_2072"/>
<feOffset dy="1"/>
<feGaussianBlur stdDeviation="1.5"/>
<feColorMatrix type="matrix" values="0 0 0 0 0 0 0 0 0 0 0 0 0 0 0 0 0 0 0.15 0"/>
<feBlend mode="normal" in2="BackgroundImageFix" result="effect1_dropShadow_43_2072"/>
<feColorMatrix in="SourceAlpha" type="matrix" values="0 0 0 0 0 0 0 0 0 0 0 0 0 0 0 0 0 0 127 0" result="hardAlpha"/>
<feOffset dy="1"/>
<feGaussianBlur stdDeviation="1"/>
<feColorMatrix type="matrix" values="0 0 0 0 0 0 0 0 0 0 0 0 0 0 0 0 0 0 0.3 0"/>
<feBlend mode="normal" in2="effect1_dropShadow_43_2072" result="effect2_dropShadow_43_2072"/>
<feBlend mode="normal" in="SourceGraphic" in2="effect2_dropShadow_43_2072" result="shape"/>
</filter>
<filter id="filter4_dd_43_2072" x="3.29114" y="17.2186" width="30.7563" height="14.3627" filterUnits="userSpaceOnUse" color-interpolation-filters="sRGB">
<feFlood flood-opacity="0" result="BackgroundImageFix"/>
<feColorMatrix in="SourceAlpha" type="matrix" values="0 0 0 0 0 0 0 0 0 0 0 0 0 0 0 0 0 0 127 0" result="hardAlpha"/>
<feMorphology radius="1" operator="dilate" in="SourceAlpha" result="effect1_dropShadow_43_2072"/>
<feOffset dy="1"/>
<feGaussianBlur stdDeviation="1.5"/>
<feColorMatrix type="matrix" values="0 0 0 0 0 0 0 0 0 0 0 0 0 0 0 0 0 0 0.15 0"/>
<feBlend mode="normal" in2="BackgroundImageFix" result="effect1_dropShadow_43_2072"/>
<feColorMatrix in="SourceAlpha" type="matrix" values="0 0 0 0 0 0 0 0 0 0 0 0 0 0 0 0 0 0 127 0" result="hardAlpha"/>
<feOffset dy="1"/>
<feGaussianBlur stdDeviation="1"/>
<feColorMatrix type="matrix" values="0 0 0 0 0 0 0 0 0 0 0 0 0 0 0 0 0 0 0.3 0"/>
<feBlend mode="normal" in2="effect1_dropShadow_43_2072" result="effect2_dropShadow_43_2072"/>
<feBlend mode="normal" in="SourceGraphic" in2="effect2_dropShadow_43_2072" result="shape"/>
</filter>
<filter id="filter5_dd_43_2072" x="3.00024" y="23.2158" width="27.1587" height="13.3726" filterUnits="userSpaceOnUse" color-interpolation-filters="sRGB">
<feFlood flood-opacity="0" result="BackgroundImageFix"/>
<feColorMatrix in="SourceAlpha" type="matrix" values="0 0 0 0 0 0 0 0 0 0 0 0 0 0 0 0 0 0 127 0" result="hardAlpha"/>
<feMorphology radius="1" operator="dilate" in="SourceAlpha" result="effect1_dropShadow_43_2072"/>
<feOffset dy="1"/>
<feGaussianBlur stdDeviation="1.5"/>
<feColorMatrix type="matrix" values="0 0 0 0 0 0 0 0 0 0 0 0 0 0 0 0 0 0 0.15 0"/>
<feBlend mode="normal" in2="BackgroundImageFix" result="effect1_dropShadow_43_2072"/>
<feColorMatrix in="SourceAlpha" type="matrix" values="0 0 0 0 0 0 0 0 0 0 0 0 0 0 0 0 0 0 127 0" result="hardAlpha"/>
<feOffset dy="1"/>
<feGaussianBlur stdDeviation="1"/>
<feColorMatrix type="matrix" values="0 0 0 0 0 0 0 0 0 0 0 0 0 0 0 0 0 0 0.3 0"/>
<feBlend mode="normal" in2="effect1_dropShadow_43_2072" result="effect2_dropShadow_43_2072"/>
<feBlend mode="normal" in="SourceGraphic" in2="effect2_dropShadow_43_2072" result="shape"/>
</filter>
<filter id="filter6_dd_43_2072" x="32.1543" y="10.7119" width="11.8521" height="11.852" filterUnits="userSpaceOnUse" color-interpolation-filters="sRGB">
<feFlood flood-opacity="0" result="BackgroundImageFix"/>
<feColorMatrix in="SourceAlpha" type="matrix" values="0 0 0 0 0 0 0 0 0 0 0 0 0 0 0 0 0 0 127 0" result="hardAlpha"/>
<feMorphology radius="1" operator="dilate" in="SourceAlpha" result="effect1_dropShadow_43_2072"/>
<feOffset dy="1"/>
<feGaussianBlur stdDeviation="1.5"/>
<feColorMatrix type="matrix" values="0 0 0 0 0 0 0 0 0 0 0 0 0 0 0 0 0 0 0.15 0"/>
<feBlend mode="normal" in2="BackgroundImageFix" result="effect1_dropShadow_43_2072"/>
<feColorMatrix in="SourceAlpha" type="matrix" values="0 0 0 0 0 0 0 0 0 0 0 0 0 0 0 0 0 0 127 0" result="hardAlpha"/>
<feOffset dy="1"/>
<feGaussianBlur stdDeviation="1"/>
<feColorMatrix type="matrix" values="0 0 0 0 0 0 0 0 0 0 0 0 0 0 0 0 0 0 0.3 0"/>
<feBlend mode="normal" in2="effect1_dropShadow_43_2072" result="effect2_dropShadow_43_2072"/>
<feBlend mode="normal" in="SourceGraphic" in2="effect2_dropShadow_43_2072" result="shape"/>
</filter>
<filter id="filter7_dd_43_2072" x="33.21" y="11.7677" width="9.74048" height="9.74051" filterUnits="userSpaceOnUse" color-interpolation-filters="sRGB">
<feFlood flood-opacity="0" result="BackgroundImageFix"/>
<feColorMatrix in="SourceAlpha" type="matrix" values="0 0 0 0 0 0 0 0 0 0 0 0 0 0 0 0 0 0 127 0" result="hardAlpha"/>
<feMorphology radius="1" operator="dilate" in="SourceAlpha" result="effect1_dropShadow_43_2072"/>
<feOffset dy="1"/>
<feGaussianBlur stdDeviation="1.5"/>
<feColorMatrix type="matrix" values="0 0 0 0 0 0 0 0 0 0 0 0 0 0 0 0 0 0 0.15 0"/>
<feBlend mode="normal" in2="BackgroundImageFix" result="effect1_dropShadow_43_2072"/>
<feColorMatrix in="SourceAlpha" type="matrix" values="0 0 0 0 0 0 0 0 0 0 0 0 0 0 0 0 0 0 127 0" result="hardAlpha"/>
<feOffset dy="1"/>
<feGaussianBlur stdDeviation="1"/>
<feColorMatrix type="matrix" values="0 0 0 0 0 0 0 0 0 0 0 0 0 0 0 0 0 0 0.3 0"/>
<feBlend mode="normal" in2="effect1_dropShadow_43_2072" result="effect2_dropShadow_43_2072"/>
<feBlend mode="normal" in="SourceGraphic" in2="effect2_dropShadow_43_2072" result="shape"/>
</filter>
<filter id="filter8_dd_43_2072" x="18.9678" y="19.3307" width="22.3167" height="18.8356" filterUnits="userSpaceOnUse" color-interpolation-filters="sRGB">
<feFlood flood-opacity="0" result="BackgroundImageFix"/>
<feColorMatrix in="SourceAlpha" type="matrix" values="0 0 0 0 0 0 0 0 0 0 0 0 0 0 0 0 0 0 127 0" result="hardAlpha"/>
<feMorphology radius="1" operator="dilate" in="SourceAlpha" result="effect1_dropShadow_43_2072"/>
<feOffset dy="1"/>
<feGaussianBlur stdDeviation="1.5"/>
<feColorMatrix type="matrix" values="0 0 0 0 0 0 0 0 0 0 0 0 0 0 0 0 0 0 0.15 0"/>
<feBlend mode="normal" in2="BackgroundImageFix" result="effect1_dropShadow_43_2072"/>
<feColorMatrix in="SourceAlpha" type="matrix" values="0 0 0 0 0 0 0 0 0 0 0 0 0 0 0 0 0 0 127 0" result="hardAlpha"/>
<feOffset dy="1"/>
<feGaussianBlur stdDeviation="1"/>
<feColorMatrix type="matrix" values="0 0 0 0 0 0 0 0 0 0 0 0 0 0 0 0 0 0 0.3 0"/>
<feBlend mode="normal" in2="effect1_dropShadow_43_2072" result="effect2_dropShadow_43_2072"/>
<feBlend mode="normal" in="SourceGraphic" in2="effect2_dropShadow_43_2072" result="shape"/>
</filter>
<filter id="filter9_dd_43_2072" x="-2.33337" y="23.6796" width="33.8276" height="26.3479" filterUnits="userSpaceOnUse" color-interpolation-filters="sRGB">
<feFlood flood-opacity="0" result="BackgroundImageFix"/>
<feColorMatrix in="SourceAlpha" type="matrix" values="0 0 0 0 0 0 0 0 0 0 0 0 0 0 0 0 0 0 127 0" result="hardAlpha"/>
<feMorphology radius="1" operator="dilate" in="SourceAlpha" result="effect1_dropShadow_43_2072"/>
<feOffset dy="1"/>
<feGaussianBlur stdDeviation="1.5"/>
<feColorMatrix type="matrix" values="0 0 0 0 0 0 0 0 0 0 0 0 0 0 0 0 0 0 0.15 0"/>
<feBlend mode="normal" in2="BackgroundImageFix" result="effect1_dropShadow_43_2072"/>
<feColorMatrix in="SourceAlpha" type="matrix" values="0 0 0 0 0 0 0 0 0 0 0 0 0 0 0 0 0 0 127 0" result="hardAlpha"/>
<feOffset dy="1"/>
<feGaussianBlur stdDeviation="1"/>
<feColorMatrix type="matrix" values="0 0 0 0 0 0 0 0 0 0 0 0 0 0 0 0 0 0 0.3 0"/>
<feBlend mode="normal" in2="effect1_dropShadow_43_2072" result="effect2_dropShadow_43_2072"/>
<feBlend mode="normal" in="SourceGraphic" in2="effect2_dropShadow_43_2072" result="shape"/>
</filter>
<filter id="filter10_dd_43_2072" x="38.5759" y="12.2449" width="13.2343" height="10.0219" filterUnits="userSpaceOnUse" color-interpolation-filters="sRGB">
<feFlood flood-opacity="0" result="BackgroundImageFix"/>
<feColorMatrix in="SourceAlpha" type="matrix" values="0 0 0 0 0 0 0 0 0 0 0 0 0 0 0 0 0 0 127 0" result="hardAlpha"/>
<feMorphology radius="1" operator="dilate" in="SourceAlpha" result="effect1_dropShadow_43_2072"/>
<feOffset dy="1"/>
<feGaussianBlur stdDeviation="1.5"/>
<feColorMatrix type="matrix" values="0 0 0 0 0 0 0 0 0 0 0 0 0 0 0 0 0 0 0.15 0"/>
<feBlend mode="normal" in2="BackgroundImageFix" result="effect1_dropShadow_43_2072"/>
<feColorMatrix in="SourceAlpha" type="matrix" values="0 0 0 0 0 0 0 0 0 0 0 0 0 0 0 0 0 0 127 0" result="hardAlpha"/>
<feOffset dy="1"/>
<feGaussianBlur stdDeviation="1"/>
<feColorMatrix type="matrix" values="0 0 0 0 0 0 0 0 0 0 0 0 0 0 0 0 0 0 0.3 0"/>
<feBlend mode="normal" in2="effect1_dropShadow_43_2072" result="effect2_dropShadow_43_2072"/>
<feBlend mode="normal" in="SourceGraphic" in2="effect2_dropShadow_43_2072" result="shape"/>
</filter>
<filter id="filter11_dd_43_2072" x="37.6659" y="20.9352" width="19.8611" height="23.7484" filterUnits="userSpaceOnUse" color-interpolation-filters="sRGB">
<feFlood flood-opacity="0" result="BackgroundImageFix"/>
<feColorMatrix in="SourceAlpha" type="matrix" values="0 0 0 0 0 0 0 0 0 0 0 0 0 0 0 0 0 0 127 0" result="hardAlpha"/>
<feMorphology radius="1" operator="dilate" in="SourceAlpha" result="effect1_dropShadow_43_2072"/>
<feOffset dy="1"/>
<feGaussianBlur stdDeviation="1.5"/>
<feColorMatrix type="matrix" values="0 0 0 0 0 0 0 0 0 0 0 0 0 0 0 0 0 0 0.15 0"/>
<feBlend mode="normal" in2="BackgroundImageFix" result="effect1_dropShadow_43_2072"/>
<feColorMatrix in="SourceAlpha" type="matrix" values="0 0 0 0 0 0 0 0 0 0 0 0 0 0 0 0 0 0 127 0" result="hardAlpha"/>
<feOffset dy="1"/>
<feGaussianBlur stdDeviation="1"/>
<feColorMatrix type="matrix" values="0 0 0 0 0 0 0 0 0 0 0 0 0 0 0 0 0 0 0.3 0"/>
<feBlend mode="normal" in2="effect1_dropShadow_43_2072" result="effect2_dropShadow_43_2072"/>
<feBlend mode="normal" in="SourceGraphic" in2="effect2_dropShadow_43_2072" result="shape"/>
</filter>
<filter id="filter12_dd_43_2072" x="51.6168" y="20.9352" width="23.0664" height="23.7484" filterUnits="userSpaceOnUse" color-interpolation-filters="sRGB">
<feFlood flood-opacity="0" result="BackgroundImageFix"/>
<feColorMatrix in="SourceAlpha" type="matrix" values="0 0 0 0 0 0 0 0 0 0 0 0 0 0 0 0 0 0 127 0" result="hardAlpha"/>
<feMorphology radius="1" operator="dilate" in="SourceAlpha" result="effect1_dropShadow_43_2072"/>
<feOffset dy="1"/>
<feGaussianBlur stdDeviation="1.5"/>
<feColorMatrix type="matrix" values="0 0 0 0 0 0 0 0 0 0 0 0 0 0 0 0 0 0 0.15 0"/>
<feBlend mode="normal" in2="BackgroundImageFix" result="effect1_dropShadow_43_2072"/>
<feColorMatrix in="SourceAlpha" type="matrix" values="0 0 0 0 0 0 0 0 0 0 0 0 0 0 0 0 0 0 127 0" result="hardAlpha"/>
<feOffset dy="1"/>
<feGaussianBlur stdDeviation="1"/>
<feColorMatrix type="matrix" values="0 0 0 0 0 0 0 0 0 0 0 0 0 0 0 0 0 0 0.3 0"/>
<feBlend mode="normal" in2="effect1_dropShadow_43_2072" result="effect2_dropShadow_43_2072"/>
<feBlend mode="normal" in="SourceGraphic" in2="effect2_dropShadow_43_2072" result="shape"/>
</filter>
<filter id="filter13_dd_43_2072" x="68.1761" y="20.9352" width="20.3934" height="23.7484" filterUnits="userSpaceOnUse" color-interpolation-filters="sRGB">
<feFlood flood-opacity="0" result="BackgroundImageFix"/>
<feColorMatrix in="SourceAlpha" type="matrix" values="0 0 0 0 0 0 0 0 0 0 0 0 0 0 0 0 0 0 127 0" result="hardAlpha"/>
<feMorphology radius="1" operator="dilate" in="SourceAlpha" result="effect1_dropShadow_43_2072"/>
<feOffset dy="1"/>
<feGaussianBlur stdDeviation="1.5"/>
<feColorMatrix type="matrix" values="0 0 0 0 0 0 0 0 0 0 0 0 0 0 0 0 0 0 0.15 0"/>
<feBlend mode="normal" in2="BackgroundImageFix" result="effect1_dropShadow_43_2072"/>
<feColorMatrix in="SourceAlpha" type="matrix" values="0 0 0 0 0 0 0 0 0 0 0 0 0 0 0 0 0 0 127 0" result="hardAlpha"/>
<feOffset dy="1"/>
<feGaussianBlur stdDeviation="1"/>
<feColorMatrix type="matrix" values="0 0 0 0 0 0 0 0 0 0 0 0 0 0 0 0 0 0 0.3 0"/>
<feBlend mode="normal" in2="effect1_dropShadow_43_2072" result="effect2_dropShadow_43_2072"/>
<feBlend mode="normal" in="SourceGraphic" in2="effect2_dropShadow_43_2072" result="shape"/>
</filter>
<filter id="filter14_dd_43_2072" x="81.2837" y="20.6667" width="20.6785" height="24.2963" filterUnits="userSpaceOnUse" color-interpolation-filters="sRGB">
<feFlood flood-opacity="0" result="BackgroundImageFix"/>
<feColorMatrix in="SourceAlpha" type="matrix" values="0 0 0 0 0 0 0 0 0 0 0 0 0 0 0 0 0 0 127 0" result="hardAlpha"/>
<feMorphology radius="1" operator="dilate" in="SourceAlpha" result="effect1_dropShadow_43_2072"/>
<feOffset dy="1"/>
<feGaussianBlur stdDeviation="1.5"/>
<feColorMatrix type="matrix" values="0 0 0 0 0 0 0 0 0 0 0 0 0 0 0 0 0 0 0.15 0"/>
<feBlend mode="normal" in2="BackgroundImageFix" result="effect1_dropShadow_43_2072"/>
<feColorMatrix in="SourceAlpha" type="matrix" values="0 0 0 0 0 0 0 0 0 0 0 0 0 0 0 0 0 0 127 0" result="hardAlpha"/>
<feOffset dy="1"/>
<feGaussianBlur stdDeviation="1"/>
<feColorMatrix type="matrix" values="0 0 0 0 0 0 0 0 0 0 0 0 0 0 0 0 0 0 0.3 0"/>
<feBlend mode="normal" in2="effect1_dropShadow_43_2072" result="effect2_dropShadow_43_2072"/>
<feBlend mode="normal" in="SourceGraphic" in2="effect2_dropShadow_43_2072" result="shape"/>
</filter>
<linearGradient id="paint0_linear_43_2072" x1="2.40159" y1="23.3999" x2="45.6652" y2="37.7964" gradientUnits="userSpaceOnUse">
<stop stop-color="#506077"/>
<stop offset="0.7" stop-color="#192332"/>
</linearGradient>
<linearGradient id="paint1_linear_43_2072" x1="6.15063" y1="16.62" x2="49.5401" y2="33.5065" gradientUnits="userSpaceOnUse">
<stop stop-color="#8DC3F6"/>
<stop offset="0.31" stop-color="#8CBEF7"/>
<stop offset="0.53" stop-color="#8CB7FA"/>
<stop offset="1" stop-color="#7D83E6"/>
</linearGradient>
<linearGradient id="paint2_linear_43_2072" x1="2.69872" y1="19.0008" x2="50.119" y2="25.3528" gradientUnits="userSpaceOnUse">
<stop stop-color="#77EEB0"/>
<stop offset="0.29" stop-color="#76E9B2"/>
<stop offset="0.53" stop-color="#75E0B6"/>
<stop offset="0.64" stop-color="#73DAB2"/>
<stop offset="0.78" stop-color="#6DCCA8"/>
<stop offset="0.92" stop-color="#64B398"/>
<stop offset="1" stop-color="#5EA38D"/>
</linearGradient>
<linearGradient id="paint3_linear_43_2072" x1="1.66458" y1="25.884" x2="47.823" y2="25.884" gradientUnits="userSpaceOnUse">
<stop stop-color="#FF5F72"/>
<stop offset="0.03" stop-color="#FB4662"/>
<stop offset="0.04" stop-color="#F93A5A"/>
<stop offset="0.6" stop-color="#EF1D40"/>
<stop offset="1" stop-color="#E8072D"/>
</linearGradient>
<linearGradient id="paint4_linear_43_2072" x1="2.24674" y1="36.6104" x2="49.1946" y2="33.8124" gradientUnits="userSpaceOnUse">
<stop stop-color="#8DC3F6"/>
<stop offset="0.31" stop-color="#8CBEF7"/>
<stop offset="0.53" stop-color="#8CB7FA"/>
<stop offset="1" stop-color="#7D83E6"/>
</linearGradient>
<linearGradient id="paint5_linear_43_2072" x1="24.746" y1="48.111" x2="24.746" y2="3.66654" gradientUnits="userSpaceOnUse">
<stop stop-color="#5B5B5A"/>
<stop offset="0.09" stop-color="#777777"/>
<stop offset="0.22" stop-color="#9D9D9C"/>
<stop offset="0.35" stop-color="#BCBCBC"/>
<stop offset="0.49" stop-color="#D4D4D4"/>
<stop offset="0.64" stop-color="#E5E5E5"/>
<stop offset="0.8" stop-color="#EFEFEF"/>
<stop offset="1" stop-color="#F3F3F3"/>
</linearGradient>
<linearGradient id="paint6_linear_43_2072" x1="35.3083" y1="25.2197" x2="23.2317" y2="33.5832" gradientUnits="userSpaceOnUse">
<stop stop-color="#F3F3F3"/>
<stop offset="0.15" stop-color="#EEEEEE"/>
<stop offset="0.31" stop-color="#E1E1E1"/>
<stop offset="0.48" stop-color="#CCCCCB"/>
<stop offset="0.66" stop-color="#ADADAD"/>
<stop offset="0.83" stop-color="#878786"/>
<stop offset="1" stop-color="#5B5B5A"/>
</linearGradient>
<linearGradient id="paint7_linear_43_2072" x1="1.66542" y1="25.8907" x2="47.8238" y2="25.8907" gradientUnits="userSpaceOnUse">
<stop stop-color="#F3F3F3"/>
<stop offset="0.14" stop-color="#EEEEEE"/>
<stop offset="0.31" stop-color="#E0E0E0"/>
<stop offset="0.48" stop-color="#C9C9C9"/>
<stop offset="0.67" stop-color="#A9A9A9"/>
<stop offset="0.85" stop-color="#818180"/>
<stop offset="1" stop-color="#5B5B5A"/>
</linearGradient>
<linearGradient id="paint8_linear_43_2072" x1="42.5996" y1="16.372" x2="47.7785" y2="15.6158" gradientUnits="userSpaceOnUse">
<stop stop-color="#192332"/>
<stop offset="0.15" stop-color="#192332"/>
<stop offset="0.24" stop-color="#141C28"/>
<stop offset="0.51" stop-color="#090C12"/>
<stop offset="0.77" stop-color="#020304"/>
<stop offset="1"/>
</linearGradient>
</defs>
</svg>
