<svg width="63" height="60" viewBox="0 0 63 60" fill="none" xmlns="http://www.w3.org/2000/svg">
<path d="M55.4789 15.9174C55.4521 15.3268 55.3665 14.7522 55.2274 14.1968C55.2253 14.1947 55.2232 14.1947 55.221 14.1926C55.0252 14.0449 53.0842 12.3468 50.5515 11.8054C48.2103 11.2372 43.4263 11.1516 42.2012 11.0104C41.5934 10.9419 41.0135 10.7857 40.4828 10.5877C38.7761 9.95747 37.567 8.90031 37.567 8.90031C37.567 8.90031 38.1223 11.1537 39.2105 12.4666C39.3271 12.6036 39.4459 12.7309 39.5743 12.8454C41.3366 14.4226 43.5879 14.3317 43.5879 14.3317C43.5879 14.3317 42.0963 15.4466 40.7224 16.7542C40.3832 17.0762 39.8793 17.5074 39.3582 17.7814C38.9377 18.0018 38.1726 18.3463 37.3519 18.1591C33.2763 17.2314 29.3033 13.3558 26.2634 10.332C21.946 6.04232 19.5898 0 19.5898 0C19.5898 0 17.0593 5.81976 18.9114 8.89924C20.6973 11.8674 23.4087 13.4029 26.4165 15.1192C31.3503 17.9333 36.7014 20.5741 39.7691 21.5007C40.2506 21.6462 40.5202 22.315 40.5855 23.37C40.6197 24.2003 40.5502 24.8798 40.4293 25.3335C39.9724 27.0423 39.7241 27.9667 38.9163 28.7489C38.4519 29.1983 37.8538 29.5728 37.0876 30.0126C36.359 30.432 35.7073 30.6514 34.8663 31.0698C34.0049 31.5138 31.7772 32.8192 30.2032 33.8764C28.0867 35.2974 26.6412 36.1694 25.599 36.8296C24.3567 37.6161 19.9943 40.8881 19.0495 41.558C18.1047 42.2299 8.87158 50.2785 7.93532 51.1762C6.99907 52.075 4.35615 55.0304 2.70406 55.5087C2.21507 55.6499 1.71752 55.7505 1.25955 55.8372C1.33659 56.2641 1.51101 56.7531 2.03317 57.3812C3.83506 59.5597 6.21154 59.4121 6.7337 58.3966C7.63465 56.6504 8.97323 54.4451 10.5151 52.0462C12.057 49.6472 18.2684 43.8018 18.9714 43.1854C19.9493 42.3305 26.9119 36.423 28.1456 36.0892C28.5533 35.9789 29.0754 36.6777 28.7576 36.9698C28.0022 37.6685 20.28 43.7012 17.8928 46.1483C15.8448 48.2455 10.0293 55.0796 9.37769 57.5021C9.10698 58.5176 9.3274 59.5833 9.96405 59.8518C10.6007 60.1204 12.3031 60.1707 13.2918 58.7016C14.1777 57.3844 14.915 54.9266 17.6884 50.7835C22.329 44.3057 28.3671 39.0905 28.7405 38.7706L28.7448 38.7642C28.7448 38.7642 28.7469 38.762 28.7534 38.7599C28.7534 38.7599 28.7555 38.7556 28.7576 38.7556C29.0219 38.5662 33.0355 35.7339 36.8918 33.6891C38.8938 32.6298 40.3832 30.7948 41.3495 28.9972C42.0343 27.7217 42.3028 25.1911 42.3028 25.1911C42.3028 25.1911 43.2038 27.6158 44.2481 28.8741C45.4112 30.2747 47.3843 30.7702 48.0851 30.9093C48.7903 29.0325 48.8556 26.8935 49.9245 24.3416C50.1931 23.6985 50.5237 23.0265 50.9463 22.3289C51.9511 20.6682 53.3763 19.4527 54.8829 18.5646C54.9995 18.494 55.1204 18.4255 55.2392 18.3602C55.4019 17.7022 55.4885 17.012 55.4885 16.3026C55.4885 16.1731 55.4853 16.0447 55.4789 15.9174ZM49.168 18.7583C47.732 18.7583 46.5668 17.5952 46.5668 16.1592C46.5668 14.7233 47.732 13.558 49.168 13.558C50.6039 13.558 51.767 14.7233 51.767 16.1592C51.767 17.5952 50.6039 18.7583 49.168 18.7583Z" fill="url(#paint0_linear_5_36)"/>
<path d="M62.3141 16.1999C62.3141 16.1999 62.3077 16.1999 62.297 16.202C61.6432 15.9442 60.815 15.6799 60.1141 15.6424C58.8697 15.5761 56.321 15.8072 55.4692 15.9174C55.4425 15.3268 55.3569 14.7522 55.2178 14.1968C55.4243 14.3338 56.3124 14.1679 58.0415 14.4547C60.8107 14.9127 62.3141 16.1999 62.3141 16.1999Z" fill="#192332"/>
<path d="M11.9329 4.90919C11.9532 4.81717 12.0795 4.80647 12.1126 4.89421C12.4732 5.854 13.9209 8.90459 18.6108 12.1585C19.9772 13.1065 23.8741 15.5943 27.1933 17.3534C32.0875 19.947 39.6503 23.5476 40.0387 23.7541C40.196 23.8376 40.1168 24.1928 39.9007 24.1789C39.6888 24.165 38.0282 23.8322 37.2899 23.6236C35.9588 23.2469 24.3738 20.2456 18.4117 17.0987C14.7962 15.1898 12.821 13.7624 11.7659 10.0035C11.2791 8.26793 11.7403 5.79087 11.9329 4.90919Z" fill="url(#paint1_linear_5_36)"/>
<path d="M8.36332 13.2242C8.36867 13.1418 8.47246 13.1108 8.52703 13.1718C10.758 15.6456 12.9547 17.1939 14.503 18.127C16.4579 19.305 18.1656 19.9759 19.424 20.4639C22.268 21.567 24.5172 22.055 25.4877 22.2711C28.2954 22.8971 32.4695 23.9414 38.8168 25.8182C38.9205 25.8492 38.8981 26.0033 38.79 26.0044C33.0002 26.045 28.2109 25.5517 24.7184 25.3335C15.2114 24.7396 11.5134 22.4305 10.3375 20.9347C8.36225 18.4244 8.22422 15.2679 8.36332 13.2242Z" fill="url(#paint2_linear_5_36)"/>
<path d="M7.59613 22.4156C7.59827 22.3546 7.66782 22.3225 7.71276 22.3631C9.02994 23.538 11.1079 25.1077 13.9616 26.1734C17.5365 27.5077 20.3656 27.3162 24.6467 27.268C27.831 27.2316 32.4599 27.268 38.2464 27.6329C38.3299 27.6382 38.3395 27.7592 38.2571 27.7752C35.0642 28.4161 32.4374 28.8634 30.9533 29.0924C21.6068 30.5348 17.3385 31.3426 14.0665 30.7252C11.6686 30.2737 10.1567 29.0196 9.4451 28.1187C7.80478 26.0439 7.56189 23.5112 7.59613 22.4156Z" fill="url(#paint3_linear_5_36)"/>
<path d="M7.20344 32.6598C7.19167 32.6309 7.21628 32.602 7.24624 32.6095C8.61049 32.9284 10.667 33.5051 13.1698 33.3489C16.0888 33.167 18.7755 32.7379 23.3338 31.8894C25.5861 31.4699 28.946 31.0195 33.0205 30.4417C33.0644 30.4352 33.0826 30.4973 33.0419 30.5155C27.9337 32.8203 23.4204 34.6885 19.6851 36.163C16.1626 37.554 13.326 38.0655 11.4235 37.4138C8.95075 36.5674 7.77375 34.0626 7.20344 32.6598Z" fill="url(#paint4_linear_5_36)"/>
<path d="M49.1594 13.5613C47.7235 13.5613 46.5582 14.7265 46.5582 16.1624C46.5582 17.5984 47.7235 18.7615 49.1594 18.7615C50.5954 18.7615 51.7585 17.5984 51.7585 16.1624C51.7585 14.7265 50.5954 13.5613 49.1594 13.5613ZM49.1594 17.3362C48.5099 17.3362 47.9835 16.8098 47.9835 16.1624C47.9835 15.5151 48.5099 14.9865 49.1594 14.9865C49.8089 14.9865 50.3332 15.5129 50.3332 16.1624C50.3332 16.8119 49.8068 17.3362 49.1594 17.3362Z" fill="url(#paint5_linear_5_36)"/>
<path d="M50.3332 16.1624C50.3332 16.8119 49.8068 17.3362 49.1594 17.3362C48.5099 17.3362 47.9835 16.8098 47.9835 16.1624C47.9835 15.5151 48.5099 14.9865 49.1594 14.9865C49.8089 14.9865 50.3332 15.5129 50.3332 16.1624Z" fill="#22273E"/>
<path d="M48.0841 30.9146C48.0712 30.9521 48.0573 30.9895 48.0423 31.027C47.1104 33.4013 43.1834 38.5448 38.2036 39.373C30.4065 40.6699 28.7566 38.761 28.7566 38.761C29.0209 38.5716 33.0344 35.7393 36.8907 33.6945C38.8927 32.6352 40.3822 30.8001 41.3484 29.0025C42.0332 27.7271 42.3018 25.1965 42.3018 25.1965C42.3018 25.1965 43.2027 27.6211 44.247 28.8795C45.4101 30.2801 47.3832 30.7755 48.0841 30.9146Z" fill="url(#paint6_linear_5_36)"/>
<path d="M34.8663 31.0698C34.311 31.7171 31.8778 32.9519 30.2728 33.962C28.8657 34.8479 26.5898 36.255 25.5851 36.9666C24.3856 37.8161 19.9954 40.8881 19.0495 41.558C18.1047 42.2299 8.87158 50.2785 7.93532 51.1762C6.99907 52.075 4.35615 55.0304 2.70406 55.5087C2.21507 55.6499 1.71752 55.7505 1.25955 55.8372C1.17609 55.3503 1.2221 54.9352 1.05304 54.4686C0.821921 53.8256 0.304038 52.6143 0.0397464 52.0012C-0.0522741 51.7829 0.0194163 51.5325 0.214157 51.3977C2.78431 49.6333 19.4411 38.5309 22.5901 36.7483C25.7199 34.9774 29.6639 33.137 31.0357 32.5603C31.9345 32.1826 33.4999 31.7439 34.8674 31.0676L34.8663 31.0698Z" fill="url(#paint7_linear_5_36)"/>
<path d="M55.2274 18.3602C55.3901 17.7022 55.4767 17.012 55.4767 16.3026C55.4767 16.1731 55.4757 16.0447 55.4692 15.9174C56.321 15.8072 58.8697 15.5761 60.1141 15.6424C60.815 15.6799 61.64 15.9442 62.2938 16.202C61.9984 16.2266 58.492 16.5541 55.2274 18.3602Z" fill="url(#paint8_linear_5_36)"/>
<defs>
<linearGradient id="paint0_linear_5_36" x1="0.992234" y1="26.6399" x2="59.3981" y2="46.0751" gradientUnits="userSpaceOnUse">
<stop stop-color="#506077"/>
<stop offset="0.7" stop-color="#192332"/>
</linearGradient>
<linearGradient id="paint1_linear_5_36" x1="6.05334" y1="17.487" x2="64.629" y2="40.2838" gradientUnits="userSpaceOnUse">
<stop stop-color="#8DC3F6"/>
<stop offset="0.31" stop-color="#8CBEF7"/>
<stop offset="0.53" stop-color="#8CB7FA"/>
<stop offset="1" stop-color="#7D83E6"/>
</linearGradient>
<linearGradient id="paint2_linear_5_36" x1="1.39328" y1="20.7012" x2="65.4107" y2="29.2765" gradientUnits="userSpaceOnUse">
<stop stop-color="#77EEB0"/>
<stop offset="0.29" stop-color="#76E9B2"/>
<stop offset="0.53" stop-color="#75E0B6"/>
<stop offset="0.64" stop-color="#73DAB2"/>
<stop offset="0.78" stop-color="#6DCCA8"/>
<stop offset="0.92" stop-color="#64B398"/>
<stop offset="1" stop-color="#5EA38D"/>
</linearGradient>
<linearGradient id="paint3_linear_5_36" x1="-0.00268139" y1="29.9933" x2="62.3112" y2="29.9933" gradientUnits="userSpaceOnUse">
<stop stop-color="#FF5F72"/>
<stop offset="0.03" stop-color="#FB4662"/>
<stop offset="0.04" stop-color="#F93A5A"/>
<stop offset="0.6" stop-color="#EF1D40"/>
<stop offset="1" stop-color="#E8072D"/>
</linearGradient>
<linearGradient id="paint4_linear_5_36" x1="0.783196" y1="44.474" x2="64.1628" y2="40.6967" gradientUnits="userSpaceOnUse">
<stop stop-color="#8DC3F6"/>
<stop offset="0.31" stop-color="#8CBEF7"/>
<stop offset="0.53" stop-color="#8CB7FA"/>
<stop offset="1" stop-color="#7D83E6"/>
</linearGradient>
<linearGradient id="paint5_linear_5_36" x1="31.157" y1="60" x2="31.157" y2="0" gradientUnits="userSpaceOnUse">
<stop stop-color="#5B5B5A"/>
<stop offset="0.09" stop-color="#777777"/>
<stop offset="0.22" stop-color="#9D9D9C"/>
<stop offset="0.35" stop-color="#BCBCBC"/>
<stop offset="0.49" stop-color="#D4D4D4"/>
<stop offset="0.64" stop-color="#E5E5E5"/>
<stop offset="0.8" stop-color="#EFEFEF"/>
<stop offset="1" stop-color="#F3F3F3"/>
</linearGradient>
<linearGradient id="paint6_linear_5_36" x1="45.4163" y1="29.0967" x2="29.1129" y2="40.3875" gradientUnits="userSpaceOnUse">
<stop stop-color="#F3F3F3"/>
<stop offset="0.15" stop-color="#EEEEEE"/>
<stop offset="0.31" stop-color="#E1E1E1"/>
<stop offset="0.48" stop-color="#CCCCCB"/>
<stop offset="0.66" stop-color="#ADADAD"/>
<stop offset="0.83" stop-color="#878786"/>
<stop offset="1" stop-color="#5B5B5A"/>
</linearGradient>
<linearGradient id="paint7_linear_5_36" x1="-0.00163313" y1="30.0026" x2="62.3122" y2="30.0026" gradientUnits="userSpaceOnUse">
<stop stop-color="#F3F3F3"/>
<stop offset="0.14" stop-color="#EEEEEE"/>
<stop offset="0.31" stop-color="#E0E0E0"/>
<stop offset="0.48" stop-color="#C9C9C9"/>
<stop offset="0.67" stop-color="#A9A9A9"/>
<stop offset="0.85" stop-color="#818180"/>
<stop offset="1" stop-color="#5B5B5A"/>
</linearGradient>
<linearGradient id="paint8_linear_5_36" x1="55.2595" y1="17.1522" x2="62.2509" y2="16.1314" gradientUnits="userSpaceOnUse">
<stop stop-color="#192332"/>
<stop offset="0.15" stop-color="#192332"/>
<stop offset="0.24" stop-color="#141C28"/>
<stop offset="0.51" stop-color="#090C12"/>
<stop offset="0.77" stop-color="#020304"/>
<stop offset="1"/>
</linearGradient>
</defs>
</svg>
