<svg width="141" height="60" viewBox="0 0 141 60" fill="none" xmlns="http://www.w3.org/2000/svg">
<path d="M54.3407 50.5633C53.839 50.5633 53.4569 50.432 53.1955 50.1706C52.933 49.9092 52.8028 49.5271 52.8028 49.0254V27.9991C52.8028 27.4985 52.9341 27.1164 53.1955 26.8539C53.4569 26.5925 53.839 26.4612 54.3407 26.4612H67.0596C67.4469 26.4612 67.7433 26.5639 67.9486 26.7692C68.154 26.9745 68.2566 27.2593 68.2566 27.6244C68.2566 28.0118 68.154 28.3081 67.9486 28.5135C67.7433 28.7188 67.4469 28.8215 67.0596 28.8215H55.5378V37.1638H66.342C66.7293 37.1638 67.0257 37.2612 67.231 37.4549C67.4364 37.6486 67.539 37.9396 67.539 38.327C67.539 38.7144 67.4364 39.0107 67.231 39.2161C67.0257 39.4214 66.7293 39.5241 66.342 39.5241H55.5378V48.2083H67.0596C67.4469 48.2083 67.7433 48.311 67.9486 48.5163C68.154 48.7216 68.2566 49.0063 68.2566 49.3715C68.2566 49.7589 68.154 50.0552 67.9486 50.2605C67.7433 50.4659 67.4469 50.5685 67.0596 50.5685H54.3407V50.5633Z" fill="#192332"/>
<path d="M74.1011 50.8024C73.6905 50.8024 73.3719 50.6829 73.1443 50.4437C72.9157 50.2045 72.8025 49.8679 72.8025 49.435V27.5874C72.8025 27.1312 72.9157 26.7893 73.1443 26.5618C73.373 26.3342 73.6915 26.2199 74.1011 26.2199C74.4652 26.2199 74.7563 26.294 74.9733 26.4422C75.1892 26.5903 75.3892 26.8348 75.5713 27.1778L84.9392 44.8193H83.9136L93.2477 27.1778C93.4298 26.8359 93.6235 26.5914 93.8288 26.4422C94.0341 26.294 94.3294 26.2199 94.7178 26.2199C95.1063 26.2199 95.4132 26.3342 95.6408 26.5618C95.8683 26.7904 95.9826 27.1323 95.9826 27.5874V49.435C95.9826 49.8679 95.8747 50.2045 95.6577 50.4437C95.4407 50.6829 95.1158 50.8024 94.6829 50.8024C94.2723 50.8024 93.9537 50.6829 93.7261 50.4437C93.4975 50.2045 93.3843 49.8679 93.3843 49.435V30.2207H94.2045L85.6568 46.2555C85.497 46.5519 85.3319 46.7625 85.1615 46.8885C84.99 47.0144 84.7455 47.0769 84.4259 47.0769C84.1063 47.0769 83.8565 47.0081 83.6734 46.8715C83.4903 46.735 83.3315 46.5297 83.195 46.2566L74.5446 30.1879H75.3649V49.4371C75.3649 49.87 75.2569 50.2066 75.04 50.4458C74.823 50.685 74.5097 50.8046 74.1001 50.8046L74.1011 50.8024Z" fill="#192332"/>
<path d="M109.283 50.8025C108.85 50.8025 108.508 50.6712 108.257 50.4098C108.006 50.1484 107.881 49.7896 107.881 49.3334V28.8881H100.189C99.7781 28.8881 99.4595 28.7738 99.2319 28.5463C99.0044 28.3187 98.8901 28.0224 98.8901 27.6572C98.8901 27.2698 99.0044 26.9735 99.2319 26.7682C99.4595 26.5628 99.7791 26.4602 100.189 26.4602H118.411C118.822 26.4602 119.141 26.5628 119.368 26.7682C119.596 26.9735 119.71 27.2698 119.71 27.6572C119.71 28.0446 119.596 28.3473 119.368 28.5632C119.14 28.7802 118.821 28.8881 118.411 28.8881H110.719V49.3334C110.719 49.7896 110.599 50.1484 110.36 50.4098C110.121 50.6712 109.762 50.8025 109.283 50.8025Z" fill="#192332"/>
<path d="M130.343 50.8712C129.272 50.8712 128.223 50.7802 127.197 50.5982C126.172 50.4161 125.22 50.1536 124.343 49.8118C123.465 49.4699 122.672 49.037 121.967 48.5121C121.693 48.3067 121.505 48.0739 121.402 47.8114C121.3 47.55 121.276 47.2875 121.334 47.025C121.391 46.7636 121.505 46.5413 121.675 46.3582C121.847 46.1762 122.056 46.0735 122.308 46.0502C122.559 46.028 122.832 46.1074 123.129 46.2894C124.154 47.0186 125.249 47.5489 126.411 47.8791C127.573 48.2094 128.883 48.3745 130.343 48.3745C132.394 48.3745 133.916 47.9934 134.907 47.2293C135.898 46.4662 136.394 45.4575 136.394 44.2033C136.394 43.1777 136.035 42.3744 135.316 41.7933C134.599 41.2122 133.395 40.7508 131.709 40.4089L128.154 39.6913C126.011 39.2351 124.41 38.489 123.35 37.4517C122.29 36.4145 121.76 35.0301 121.76 33.2975C121.76 32.2264 121.976 31.2516 122.41 30.3742C122.843 29.4967 123.447 28.7442 124.222 28.1176C124.997 27.4911 125.92 27.0063 126.992 26.6644C128.063 26.3226 129.248 26.1511 130.547 26.1511C131.983 26.1511 133.322 26.3511 134.565 26.7491C135.806 27.1481 136.929 27.7461 137.933 28.5442C138.183 28.7495 138.354 28.9834 138.445 29.2448C138.536 29.5073 138.548 29.7582 138.479 29.9974C138.41 30.2366 138.29 30.4366 138.12 30.5954C137.948 30.7552 137.733 30.8462 137.47 30.8684C137.208 30.8917 136.918 30.7996 136.598 30.5954C135.686 29.9116 134.74 29.4152 133.76 29.1083C132.78 28.8003 131.697 28.6468 130.512 28.6468C129.327 28.6468 128.261 28.8299 127.383 29.194C126.506 29.5592 125.822 30.0884 125.332 30.7838C124.842 31.4791 124.597 32.2825 124.597 33.1937C124.597 34.2881 124.932 35.1539 125.605 35.7921C126.277 36.4304 127.377 36.8982 128.904 37.1935L132.461 37.946C134.763 38.4244 136.466 39.1483 137.572 40.1168C138.677 41.0863 139.23 42.4019 139.23 44.0657C139.23 45.0691 139.025 45.992 138.615 46.8355C138.205 47.6791 137.612 48.403 136.837 49.0063C136.062 49.6107 135.128 50.0722 134.033 50.3907C132.939 50.7093 131.708 50.8691 130.341 50.8691L130.343 50.8712Z" fill="#192332"/>
<path d="M54.8784 15.7449C54.8519 15.1606 54.7672 14.5922 54.6297 14.0429C54.6275 14.0408 54.6254 14.0408 54.6233 14.0387C54.4296 13.8926 52.5097 12.213 50.0044 11.6774C47.6886 11.1154 42.9565 11.0307 41.7446 10.891C41.1434 10.8233 40.5698 10.6687 40.0448 10.4729C38.3567 9.84953 37.1607 8.80382 37.1607 8.80382C37.1607 8.80382 37.71 11.0328 38.7864 12.3315C38.9017 12.467 39.0192 12.5929 39.1462 12.7062C40.8894 14.2663 43.1163 14.1763 43.1163 14.1763C43.1163 14.1763 41.6409 15.2792 40.2819 16.5725C39.9464 16.8911 39.4479 17.3176 38.9324 17.5886C38.5165 17.8066 37.7597 18.1474 36.9479 17.9622C32.9164 17.0446 28.9866 13.211 25.9796 10.22C21.709 5.97682 19.3784 0 19.3784 0C19.3784 0 16.8752 5.75667 18.7073 8.80277C20.4738 11.7388 23.1558 13.2576 26.131 14.9553C31.0113 17.7389 36.3044 20.351 39.3389 21.2676C39.8151 21.4116 40.0819 22.0731 40.1464 23.1167C40.1803 23.938 40.1115 24.6101 39.9919 25.0588C39.5399 26.7491 39.2944 27.6636 38.4953 28.4373C38.036 28.8818 37.4443 29.2522 36.6865 29.6872C35.9657 30.1021 35.3211 30.3191 34.4892 30.7329C33.6372 31.1722 31.4336 32.4634 29.8767 33.5091C27.7832 34.9147 26.3533 35.7773 25.3224 36.4303C24.0936 37.2083 19.7784 40.4449 18.8439 41.1074C17.9093 41.7721 8.77631 49.7335 7.8502 50.6215C6.9241 51.5105 4.30983 54.4338 2.67565 54.9069C2.19196 55.0467 1.6998 55.1461 1.2468 55.2319C1.32301 55.6542 1.49553 56.1379 2.01203 56.7592C3.79439 58.9141 6.14511 58.768 6.66161 57.7636C7.55279 56.0363 8.87686 53.8549 10.402 51.4819C11.9272 49.109 18.0712 43.3269 18.7666 42.7173C19.734 41.8716 26.621 36.0282 27.8414 35.6979C28.2446 35.5889 28.7611 36.2801 28.4468 36.569C27.6996 37.2601 20.061 43.2274 17.6997 45.648C15.6739 47.7225 9.9215 54.4825 9.27693 56.8788C9.00916 57.8832 9.22719 58.9374 9.85694 59.203C10.4867 59.4687 12.1706 59.5184 13.1486 58.0652C14.0249 56.7623 14.7542 54.3312 17.4976 50.233C22.0879 43.8254 28.0605 38.6668 28.4299 38.3503L28.4341 38.3439C28.4341 38.3439 28.4362 38.3418 28.4426 38.3397C28.4426 38.3397 28.4447 38.3355 28.4468 38.3355C28.7082 38.1481 32.6783 35.3465 36.4928 33.3239C38.4731 32.2761 39.9464 30.4609 40.9021 28.6828C41.5795 27.4212 41.8452 24.9181 41.8452 24.9181C41.8452 24.9181 42.7363 27.3164 43.7693 28.5611C44.9198 29.9465 46.8715 30.4366 47.5648 30.5742C48.2623 28.7177 48.3268 26.602 49.3842 24.0777C49.6498 23.4416 49.9769 22.7769 50.395 22.0868C51.3888 20.4442 52.7986 19.2418 54.2888 18.3633C54.4042 18.2935 54.5238 18.2258 54.6413 18.1612C54.8022 17.5103 54.8879 16.8276 54.8879 16.1259C54.8879 15.9978 54.8847 15.8708 54.8784 15.7449ZM48.6359 18.5549C47.2155 18.5549 46.0629 17.4044 46.0629 15.9841C46.0629 14.5637 47.2155 13.4111 48.6359 13.4111C50.0563 13.4111 51.2068 14.5637 51.2068 15.9841C51.2068 17.4044 50.0563 18.5549 48.6359 18.5549Z" fill="url(#paint0_linear_5_16)"/>
<path d="M61.6395 16.0243C61.6395 16.0243 61.6331 16.0243 61.6225 16.0264C60.9758 15.7713 60.1566 15.5099 59.4634 15.4728C58.2325 15.4072 55.7113 15.6358 54.8688 15.7449C54.8424 15.1606 54.7577 14.5922 54.6201 14.0429C54.8244 14.1784 55.7029 14.0144 57.4133 14.298C60.1524 14.751 61.6395 16.0243 61.6395 16.0243Z" fill="#192332"/>
<path d="M11.8044 4.85597C11.8245 4.76495 11.9494 4.75436 11.9822 4.84115C12.3389 5.79054 13.7709 8.80806 18.4099 12.0267C19.7615 12.9644 23.6162 15.4252 26.8994 17.1652C31.7405 19.7308 39.2214 23.2923 39.6056 23.4966C39.7612 23.5792 39.6828 23.9306 39.469 23.9168C39.2595 23.9031 37.6168 23.5739 36.8865 23.3675C35.5699 22.9949 24.1105 20.0261 18.2131 16.9133C14.6367 15.0251 12.6829 13.6132 11.6393 9.89504C11.1577 8.17831 11.6139 5.7281 11.8044 4.85597Z" fill="url(#paint1_linear_5_16)"/>
<path d="M8.27356 13.0808C8.27886 12.9993 8.38152 12.9687 8.4355 13.029C10.6423 15.476 12.8152 17.0075 14.3467 17.9305C16.2804 19.0958 17.9696 19.7594 19.2143 20.242C22.0276 21.3332 24.2523 21.8159 25.2123 22.0297C27.9896 22.6488 32.1184 23.6818 38.3969 25.5383C38.4995 25.569 38.4773 25.7214 38.3704 25.7224C32.6434 25.7627 27.9059 25.2747 24.4513 25.0588C15.0474 24.4714 11.3895 22.1874 10.2263 20.7077C8.27251 18.2247 8.13597 15.1024 8.27356 13.0808Z" fill="url(#paint2_linear_5_16)"/>
<path d="M7.51469 22.1726C7.5168 22.1122 7.5856 22.0805 7.63005 22.1207C8.93295 23.2828 10.9884 24.8355 13.8111 25.8897C17.3473 27.2095 20.1457 27.0201 24.3804 26.9724C27.5302 26.9364 32.1089 26.9724 37.8327 27.3333C37.9153 27.3386 37.9248 27.4582 37.8433 27.4741C34.685 28.1081 32.0866 28.5505 30.6186 28.777C21.3735 30.2037 17.1515 31.0028 13.9149 30.3921C11.543 29.9455 10.0475 28.705 9.34361 27.8139C7.72108 25.7616 7.48082 23.2564 7.51469 22.1726Z" fill="url(#paint3_linear_5_16)"/>
<path d="M7.12625 32.3057C7.11461 32.2772 7.13895 32.2486 7.16859 32.256C8.51806 32.5714 10.5523 33.1419 13.0279 32.9874C15.9153 32.8074 18.5729 32.383 23.0817 31.5437C25.3097 31.1288 28.6331 30.6832 32.6635 30.1117C32.7069 30.1053 32.7249 30.1667 32.6846 30.1847C27.6318 32.4645 23.1675 34.3125 19.4726 35.771C15.9883 37.1469 13.1825 37.6528 11.3006 37.0082C8.85463 36.171 7.69038 33.6933 7.12625 32.3057Z" fill="url(#paint4_linear_5_16)"/>
<path d="M48.6274 13.4142C47.207 13.4142 46.0544 14.5668 46.0544 15.9872C46.0544 17.4076 47.207 18.5581 48.6274 18.5581C50.0478 18.5581 51.1983 17.4076 51.1983 15.9872C51.1983 14.5668 50.0478 13.4142 48.6274 13.4142ZM48.6274 17.1483C47.985 17.1483 47.4642 16.6276 47.4642 15.9872C47.4642 15.3469 47.985 14.824 48.6274 14.824C49.2699 14.824 49.7885 15.3448 49.7885 15.9872C49.7885 16.6297 49.2678 17.1483 48.6274 17.1483Z" fill="url(#paint5_linear_5_16)"/>
<path d="M49.7885 15.9872C49.7885 16.6297 49.2678 17.1483 48.6274 17.1483C47.985 17.1483 47.4642 16.6276 47.4642 15.9872C47.4642 15.3469 47.985 14.824 48.6274 14.824C49.2699 14.824 49.7885 15.3448 49.7885 15.9872Z" fill="#22273E"/>
<path d="M47.5637 30.5795C47.551 30.6165 47.5373 30.6536 47.5224 30.6906C46.6006 33.0392 42.7162 38.127 37.7904 38.9462C30.0778 40.229 28.4457 38.3408 28.4457 38.3408C28.7072 38.1534 32.6772 35.3518 36.4917 33.3292C38.472 32.2814 39.9453 30.4662 40.9011 28.6881C41.5784 27.4265 41.8441 24.9234 41.8441 24.9234C41.8441 24.9234 42.7353 27.3217 43.7683 28.5664C44.9188 29.9518 46.8705 30.4419 47.5637 30.5795Z" fill="url(#paint6_linear_5_16)"/>
<path d="M34.4892 30.7329C33.9399 31.3733 31.5331 32.5947 29.9455 33.5938C28.5537 34.4702 26.3025 35.862 25.3086 36.5658C24.1221 37.4062 19.7795 40.4449 18.8439 41.1074C17.9093 41.7721 8.77631 49.7335 7.8502 50.6215C6.9241 51.5105 4.30983 54.4338 2.67565 54.9069C2.19196 55.0467 1.6998 55.1461 1.2468 55.2319C1.16425 54.7503 1.20976 54.3396 1.04253 53.8782C0.813915 53.2421 0.301646 52.044 0.0402196 51.4375C-0.0508033 51.2216 0.0201099 50.9739 0.21274 50.8405C2.75503 49.0952 19.2312 38.1132 22.3461 36.3499C25.442 34.5982 29.3433 32.7778 30.7001 32.2073C31.5892 31.8337 33.1376 31.3997 34.4903 30.7308L34.4892 30.7329Z" fill="url(#paint7_linear_5_16)"/>
<path d="M54.6296 18.1612C54.7905 17.5103 54.8762 16.8276 54.8762 16.1259C54.8762 15.9978 54.8752 15.8708 54.8688 15.7449C55.7113 15.6358 58.2325 15.4072 59.4634 15.4728C60.1566 15.5099 60.9727 15.7713 61.6194 16.0264C61.3272 16.0507 57.8588 16.3746 54.6296 18.1612Z" fill="url(#paint8_linear_5_16)"/>
<defs>
<linearGradient id="paint0_linear_5_16" x1="0.982382" y1="26.3511" x2="58.7551" y2="45.5756" gradientUnits="userSpaceOnUse">
<stop stop-color="#506077"/>
<stop offset="0.7" stop-color="#192332"/>
</linearGradient>
<linearGradient id="paint1_linear_5_16" x1="5.98863" y1="17.2974" x2="63.9293" y2="39.8471" gradientUnits="userSpaceOnUse">
<stop stop-color="#8DC3F6"/>
<stop offset="0.31" stop-color="#8CBEF7"/>
<stop offset="0.53" stop-color="#8CB7FA"/>
<stop offset="1" stop-color="#7D83E6"/>
</linearGradient>
<linearGradient id="paint2_linear_5_16" x1="1.37908" y1="20.4768" x2="64.7025" y2="28.9591" gradientUnits="userSpaceOnUse">
<stop stop-color="#77EEB0"/>
<stop offset="0.29" stop-color="#76E9B2"/>
<stop offset="0.53" stop-color="#75E0B6"/>
<stop offset="0.64" stop-color="#73DAB2"/>
<stop offset="0.78" stop-color="#6DCCA8"/>
<stop offset="0.92" stop-color="#64B398"/>
<stop offset="1" stop-color="#5EA38D"/>
</linearGradient>
<linearGradient id="paint3_linear_5_16" x1="-0.00174824" y1="29.6682" x2="61.6366" y2="29.6682" gradientUnits="userSpaceOnUse">
<stop stop-color="#FF5F72"/>
<stop offset="0.03" stop-color="#FB4662"/>
<stop offset="0.04" stop-color="#F93A5A"/>
<stop offset="0.6" stop-color="#EF1D40"/>
<stop offset="1" stop-color="#E8072D"/>
</linearGradient>
<linearGradient id="paint4_linear_5_16" x1="0.77561" y1="43.9919" x2="63.4682" y2="40.2555" gradientUnits="userSpaceOnUse">
<stop stop-color="#8DC3F6"/>
<stop offset="0.31" stop-color="#8CBEF7"/>
<stop offset="0.53" stop-color="#8CB7FA"/>
<stop offset="1" stop-color="#7D83E6"/>
</linearGradient>
<linearGradient id="paint5_linear_5_16" x1="30.8202" y1="59.3496" x2="30.8202" y2="0" gradientUnits="userSpaceOnUse">
<stop stop-color="#5B5B5A"/>
<stop offset="0.09" stop-color="#777777"/>
<stop offset="0.22" stop-color="#9D9D9C"/>
<stop offset="0.35" stop-color="#BCBCBC"/>
<stop offset="0.49" stop-color="#D4D4D4"/>
<stop offset="0.64" stop-color="#E5E5E5"/>
<stop offset="0.8" stop-color="#EFEFEF"/>
<stop offset="1" stop-color="#F3F3F3"/>
</linearGradient>
<linearGradient id="paint6_linear_5_16" x1="44.9249" y1="28.7812" x2="28.7982" y2="39.9497" gradientUnits="userSpaceOnUse">
<stop stop-color="#F3F3F3"/>
<stop offset="0.15" stop-color="#EEEEEE"/>
<stop offset="0.31" stop-color="#E1E1E1"/>
<stop offset="0.48" stop-color="#CCCCCB"/>
<stop offset="0.66" stop-color="#ADADAD"/>
<stop offset="0.83" stop-color="#878786"/>
<stop offset="1" stop-color="#5B5B5A"/>
</linearGradient>
<linearGradient id="paint7_linear_5_16" x1="-0.000711345" y1="29.6773" x2="61.6376" y2="29.6773" gradientUnits="userSpaceOnUse">
<stop stop-color="#F3F3F3"/>
<stop offset="0.14" stop-color="#EEEEEE"/>
<stop offset="0.31" stop-color="#E0E0E0"/>
<stop offset="0.48" stop-color="#C9C9C9"/>
<stop offset="0.67" stop-color="#A9A9A9"/>
<stop offset="0.85" stop-color="#818180"/>
<stop offset="1" stop-color="#5B5B5A"/>
</linearGradient>
<linearGradient id="paint8_linear_5_16" x1="54.6614" y1="16.9663" x2="61.577" y2="15.9565" gradientUnits="userSpaceOnUse">
<stop stop-color="#192332"/>
<stop offset="0.15" stop-color="#192332"/>
<stop offset="0.24" stop-color="#141C28"/>
<stop offset="0.51" stop-color="#090C12"/>
<stop offset="0.77" stop-color="#020304"/>
<stop offset="1"/>
</linearGradient>
</defs>
</svg>
