<svg width="21" height="22" viewBox="0 0 21 22" fill="none" xmlns="http://www.w3.org/2000/svg">
<path d="M4.25 17.0844C3.5625 17.0844 3 17.7031 3 18.4594C3 18.5625 3.4375 18.8375 4.25 18.8375C5.0625 18.8375 5.5 18.5625 5.5 18.4594C5.5 17.7031 4.9375 17.0844 4.25 17.0844Z" fill="#19C964"/>
<path d="M4.25 9.17811C4.50888 9.17811 4.71875 8.94726 4.71875 8.66248C4.71875 8.37771 4.50888 8.14686 4.25 8.14686C3.99112 8.14686 3.78125 8.37771 3.78125 8.66248C3.78125 8.94726 3.99112 9.17811 4.25 9.17811Z" fill="#19C964"/>
<path d="M3.8125 0.206284L0.687502 3.64378H3.8125V0.206284Z" fill="#19C964"/>
<path d="M4.25 16.3969C4.50888 16.3969 4.71875 16.166 4.71875 15.8812C4.71875 15.5965 4.50888 15.3656 4.25 15.3656C3.99112 15.3656 3.78125 15.5965 3.78125 15.8812C3.78125 16.166 3.99112 16.3969 4.25 16.3969Z" fill="#19C964"/>
<path d="M4.25 9.86561C3.5625 9.86561 3 10.4844 3 11.2406C3 11.3437 3.4375 11.6187 4.25 11.6187C5.0625 11.6187 5.5 11.3437 5.5 11.2406C5.5 10.4844 4.9375 9.86561 4.25 9.86561Z" fill="#19C964"/>
<path d="M7.4375 6.15312L5.5625 4.77812C5.3125 4.60625 5.15625 4.2625 5.15625 3.91875C5.15625 3.575 5.3125 3.26562 5.5625 3.05937L7.4375 1.68438C7.59375 1.58125 7.78125 1.5125 7.96875 1.5125H15.9062V1.03125C15.9062 0.446875 15.5 0 14.9688 0H4.4375V3.9875C4.4375 4.19375 4.3125 4.33125 4.125 4.33125H0.5V20.9688C0.5 21.5531 0.9375 22 1.4375 22H14.9688C15.5 22 15.9062 21.5531 15.9062 20.9688V6.325H7.96875C7.78125 6.325 7.59375 6.25625 7.4375 6.15312ZM4.25 19.525C3.8125 19.525 3.375 19.4563 3.0625 19.3188C2.46875 19.0781 2.375 18.6656 2.375 18.4594C2.375 17.6688 2.78125 16.9813 3.40625 16.6375C3.25 16.4312 3.15625 16.1562 3.15625 15.8813C3.15625 15.2281 3.65625 14.6781 4.25 14.6781C4.84375 14.6781 5.34375 15.2281 5.34375 15.8813C5.34375 16.1562 5.25 16.4312 5.09375 16.6375C5.6875 16.9813 6.125 17.6688 6.125 18.4594C6.125 19.25 5.125 19.525 4.25 19.525ZM4.25 12.3062C3.8125 12.3062 3.375 12.2375 3.0625 12.1C2.46875 11.8594 2.375 11.4469 2.375 11.2406C2.375 10.45 2.78125 9.7625 3.40625 9.41875C3.25 9.2125 3.15625 8.9375 3.15625 8.6625C3.15625 8.00938 3.65625 7.45938 4.25 7.45938C4.84375 7.45938 5.34375 8.00938 5.34375 8.6625C5.34375 8.9375 5.25 9.2125 5.09375 9.41875C5.6875 9.7625 6.125 10.45 6.125 11.2406C6.125 12.0312 5.125 12.3062 4.25 12.3062ZM13.4375 18.4594H7.5625C7.40625 18.4594 7.25 18.2875 7.25 18.1156C7.25 17.9094 7.40625 17.7719 7.5625 17.7719H13.4375C13.5938 17.7719 13.75 17.9094 13.75 18.1156C13.75 18.3219 13.5938 18.4594 13.4375 18.4594ZM7.25 16.0531C7.25 15.8469 7.40625 15.7094 7.5625 15.7094H10.4688C10.6563 15.7094 10.7812 15.8469 10.7812 16.0531C10.7812 16.225 10.6563 16.3969 10.4688 16.3969H7.5625C7.40625 16.3969 7.25 16.2594 7.25 16.0531ZM13.75 10.8969C13.75 11.0688 13.5938 11.2406 13.4375 11.2406H7.5625C7.40625 11.2406 7.25 11.0688 7.25 10.8969C7.25 10.6906 7.40625 10.5531 7.5625 10.5531H13.4375C13.5938 10.5531 13.75 10.6906 13.75 10.8969ZM10.7812 8.83438C10.7812 9.00625 10.6563 9.17813 10.4688 9.17813H7.5625C7.40625 9.17813 7.25 9.00625 7.25 8.83438C7.25 8.62813 7.40625 8.49063 7.5625 8.49063H10.4688C10.6563 8.49063 10.7812 8.62813 10.7812 8.83438Z" fill="#19C964"/>
<path d="M19.875 2.19997H18.8438V5.63747H19.875C20.2187 5.63747 20.5 5.29372 20.5 4.91559V2.92184C20.5 2.54372 20.2187 2.19997 19.875 2.19997Z" fill="#19C964"/>
<path d="M18.2188 2.19997H8.28125V5.63747H18.2188V2.19997Z" fill="#19C964"/>
<path d="M5.78125 3.91872C5.78125 4.02184 5.84375 4.12497 5.9375 4.19372L7.65625 5.46559V2.37184L5.9375 3.64372C5.84375 3.71247 5.78125 3.81559 5.78125 3.91872Z" fill="#19C964"/>
</svg>
