<?xml version="1.0" standalone="no"?>
<!DOCTYPE svg PUBLIC "-//W3C//DTD SVG 20010904//EN"
 "http://www.w3.org/TR/2001/REC-SVG-20010904/DTD/svg10.dtd">
<svg version="1.0" xmlns="http://www.w3.org/2000/svg"
 width="900.000000pt" height="1020.000000pt" viewBox="0 0 900.000000 1020.000000"
 preserveAspectRatio="xMidYMid meet">

<g transform="translate(0.000000,1020.000000) scale(0.100000,-0.100000)"
fill="orange" stroke="none"> <!-- Change fill color here -->
<path d="M4420 10190 c-14 -4 -279 -100 -590 -213 -311 -113 -722 -262 -915
-332 -192 -69 -397 -143 -455 -165 -58 -21 -442 -161 -855 -310 -412 -150
-885 -321 -1050 -381 -312 -114 -341 -129 -402 -208 -41 -53 -50 -86 -68 -251
-53 -502 -79 -1005 -79 -1565 0 -467 9 -704 40 -1060 171 -1980 834 -3485
1979 -4495 598 -527 1356 -907 2115 -1060 228 -46 341 -56 467 -41 249 28 582
110 873 216 1085 393 1987 1174 2587 2240 335 596 588 1302 739 2065 205 1037
245 2190 124 3560 -23 261 -32 310 -65 366 -29 50 -96 111 -141 130 -19 8
-386 142 -816 298 -431 156 -938 340 -1128 409 -190 69 -478 173 -640 232
-162 59 -549 199 -860 312 -311 113 -603 218 -649 234 -85 29 -159 36 -211 19z
m773 -894 c369 -134 854 -310 1077 -391 223 -81 758 -275 1190 -432 432 -157
797 -289 811 -295 25 -9 26 -12 38 -146 149 -1745 6 -3205 -429 -4367 -218
-581 -490 -1058 -858 -1505 -123 -149 -405 -428 -559 -554 -539 -439 -1215
-754 -1839 -855 -113 -18 -129 -19 -219 -5 -646 97 -1330 415 -1892 878 -141
117 -414 391 -534 536 -278 336 -503 694 -688 1096 -561 1217 -759 2758 -605
4699 9 115 21 205 28 211 9 10 396 152 2211 810 143 51 550 199 905 328 355
129 655 235 668 236 12 0 325 -110 695 -244z"/>
<path d="M3961 7815 c-301 -66 -537 -252 -665 -526 -82 -175 -79 -154 -86
-784 l-5 -560 -110 -6 c-127 -7 -190 -25 -272 -78 -93 -60 -156 -142 -193
-250 -20 -59 -20 -81 -20 -1089 0 -1112 -2 -1070 52 -1177 29 -55 122 -150
182 -184 114 -65 10 -61 1651 -61 1637 0 1550 -3 1660 60 61 35 154 130 183
185 54 107 52 66 52 1176 0 980 -1 1030 -19 1088 -50 160 -195 289 -360 321
-30 5 -89 10 -132 10 l-79 0 0 413 c-1 493 -11 694 -39 792 -85 287 -296 518
-571 624 -150 58 -184 61 -697 60 -359 0 -483 -4 -532 -14z m987 -630 c69 -21
140 -80 177 -146 l30 -54 3 -522 3 -523 -661 0 -661 0 3 518 3 517 28 57 c34
69 97 124 170 149 47 16 94 18 453 19 330 0 409 -3 452 -15z m-377 -1885 c116
-22 226 -106 282 -215 40 -78 49 -202 22 -290 -23 -71 -78 -150 -132 -190
l-42 -30 0 -389 -1 -388 -34 -34 -34 -34 -131 0 c-130 0 -131 0 -163 29 l-33
29 -3 394 -3 393 -35 23 c-48 32 -117 129 -138 196 -26 83 -19 202 16 279 52
110 168 204 281 227 60 11 87 11 148 0z"/>
</g>
</svg>
