<svg width="18" height="24" viewBox="0 0 18 24" fill="none" xmlns="http://www.w3.org/2000/svg">
<path d="M8.69642 1.09365L8.69644 1.09367L8.70225 1.08981C8.88278 0.970003 9.12207 0.970003 9.3026 1.08981L9.30259 1.08982L9.30628 1.09224L10.1407 1.64068L10.1406 1.64069L10.1449 1.64348C10.6009 1.93982 11.1389 2.08753 11.6884 2.05657L11.6884 2.05659L11.693 2.0563L12.691 1.99539C12.6911 1.99538 12.6912 1.99538 12.6913 1.99537C12.6913 1.99537 12.6914 1.99537 12.6915 1.99536C12.9082 1.9824 13.1145 2.10119 13.2127 2.29756L13.2136 2.29943L13.6627 3.19287C13.6629 3.19325 13.6631 3.19363 13.6633 3.19401C13.9126 3.69214 14.3146 4.08312 14.7933 4.3263L14.7933 4.32631L14.7971 4.32822L15.7018 4.78291L15.7036 4.78383C15.9001 4.88208 16.019 5.08861 16.0058 5.30547L15.9449 6.30349L15.9449 6.30349L15.9446 6.30816C15.9139 6.85354 16.0591 7.39988 16.362 7.85803L16.3627 7.85913L16.9158 8.69351L16.9161 8.69392C17.0359 8.87445 17.0359 9.11374 16.9161 9.29427L16.9144 9.29683L16.3613 10.1359L16.3612 10.1359L16.3577 10.1413C16.0614 10.5972 15.9137 11.1353 15.9446 11.6847L15.9449 11.6894L16.0058 12.6874C16.019 12.9043 15.9001 13.1108 15.7036 13.209L15.7018 13.21L14.8083 13.659C14.808 13.6592 14.8076 13.6594 14.8073 13.6596C14.3091 13.909 13.9181 14.3109 13.6749 14.7897L13.673 14.7935L13.2183 15.6982L13.2174 15.7C13.1191 15.8965 12.9126 16.0153 12.6957 16.0022L11.6977 15.9413L11.6977 15.9413L11.693 15.941C11.1477 15.9103 10.6013 16.0555 10.1432 16.3583L10.1421 16.359L9.3077 16.9122L9.30729 16.9124C9.12676 17.0322 8.88747 17.0322 8.70694 16.9124L8.70438 16.9108L7.86531 16.3576L7.86532 16.3576L7.85991 16.3541C7.404 16.0577 6.86592 15.91 6.31649 15.941L6.31182 15.9413L5.3138 16.0022C5.09693 16.0153 4.89041 15.8965 4.79217 15.7L4.79123 15.6981L4.34216 14.8047C4.34198 14.8043 4.3418 14.804 4.34162 14.8036C4.09225 14.3055 3.69031 13.9145 3.21155 13.6713L3.20774 13.6693L2.30305 13.2147L2.3012 13.2137C2.10483 13.1155 1.98604 12.9092 1.999 12.6925C1.99901 12.6925 1.99901 12.6924 1.99902 12.6923C1.99902 12.6922 1.99903 12.6922 1.99903 12.6921L2.05994 11.6941H2.05995L2.06022 11.6894C2.09089 11.145 1.94624 10.5996 1.64448 10.1419C1.64395 10.1411 1.64342 10.1403 1.64289 10.1395L1.09729 9.30478L1.09731 9.30477L1.09345 9.29896C0.973645 9.11843 0.973645 8.87914 1.09345 8.69861L1.09346 8.69861L1.09588 8.69493L1.64432 7.86055L1.64433 7.86056L1.64712 7.85627C1.94346 7.40036 2.09117 6.86227 2.06022 6.31285L2.06023 6.31285L2.05994 6.30818L1.99903 5.31016C1.99903 5.31008 1.99902 5.31001 1.99902 5.30993C1.99901 5.30986 1.99901 5.3098 1.999 5.30974C1.98604 5.09302 2.10483 4.8867 2.3012 4.78852L2.30307 4.78758L3.19838 4.33758L3.19841 4.33763L3.20759 4.3329C3.69107 4.0836 4.08965 3.68788 4.33688 3.19407C4.33708 3.19367 4.33728 3.19327 4.33748 3.19287L4.78654 2.29943L4.78748 2.29756C4.88566 2.10119 5.09198 1.9824 5.30869 1.99536C5.30874 1.99537 5.3088 1.99537 5.30885 1.99537C5.30894 1.99538 5.30903 1.99538 5.30912 1.99539L6.30713 2.0563L6.30713 2.05631L6.3118 2.05657C6.85621 2.08724 7.40157 1.94261 7.85922 1.64087C7.86004 1.64033 7.86085 1.63979 7.86167 1.63925L8.69642 1.09365ZM5.5196 19.4938L6.20083 19.4522L6.77176 19.8307L6.77173 19.8308L6.78105 19.8368C6.78403 19.8387 6.78701 19.8406 6.79 19.8426L5.57863 22.7196L4.32716 20.8035L3.97701 20.2674L3.34357 20.3611L1.15814 20.6844L2.23583 18.1215C3.04664 19.0443 4.24864 19.5671 5.51627 19.494L5.5196 19.4938ZM12.4886 19.494C13.7568 19.5672 14.9594 19.0437 15.7702 18.1201L16.8513 20.6851L14.6613 20.3611L14.0285 20.2675L13.6782 20.8027L12.4263 22.7156L11.2152 19.8425C11.2216 19.8383 11.228 19.8341 11.2344 19.8298C11.2347 19.8296 11.235 19.8295 11.2353 19.8293L11.804 19.4522L12.4853 19.4938L12.4886 19.494ZM13.7524 8.99878C13.7524 7.739 13.252 6.53082 12.3612 5.64003C11.4704 4.74923 10.2622 4.24878 9.00242 4.24878C7.74265 4.24878 6.53446 4.74923 5.64367 5.64003C4.75287 6.53082 4.25242 7.739 4.25242 8.99878C4.25242 10.2586 4.75287 11.4667 5.64367 12.3575C6.53446 13.2483 7.74265 13.7488 9.00242 13.7488C10.2622 13.7488 11.4704 13.2483 12.3612 12.3575C13.252 11.4667 13.7524 10.2586 13.7524 8.99878Z" fill="#FF9500" stroke="#FF9500" stroke-width="2"/>
</svg>
